<svg width="48" height="48" viewBox="0 0 48 48" fill="none" xmlns="http://www.w3.org/2000/svg">
<path d="M21.1797 30.208V31.7314C21.1797 33.4682 18.7539 34.7783 15.5898 34.7783C12.4258 34.7783 10 33.4682 10 31.7314V30.208H21.1797Z" fill="#4CAF50"/>
<path d="M21.1797 28.6846V30.208C21.1797 31.9447 18.7539 33.2549 15.5898 33.2549C12.4258 33.2549 10 31.9447 10 30.208V28.6846H21.1797Z" fill="#4CAF50"/>
<path d="M21.1797 28.6846V30.208C21.1797 31.9447 18.7539 33.2549 15.5898 33.2549V28.6846H21.1797Z" fill="#4CAF50"/>
<path d="M21.1797 28.6846V30.208C21.1797 31.9447 18.7539 33.2549 15.5898 33.2549C12.4258 33.2549 10 31.9447 10 30.208V28.6846H21.1797Z" fill="#2C2C2C"/>
<path d="M21.1797 27.1611V28.6846C21.1797 30.4213 18.7539 31.7314 15.5898 31.7314C12.4258 31.7314 10 30.4213 10 28.6846V27.1611H21.1797Z" fill="#4CAF50"/>
<path d="M21.1797 25.6377V27.1611C21.1797 28.8979 18.7539 30.208 15.5898 30.208C12.4258 30.208 10 28.8979 10 27.1611V25.6377H21.1797Z" fill="#2C2C2C"/>
<path d="M21.1797 24.1143V25.6377C21.1797 27.3744 18.7539 28.6846 15.5898 28.6846C12.4258 28.6846 10 27.3744 10 25.6377V24.1143H21.1797Z" fill="#4CAF50"/>
<path d="M21.1797 22.5908V24.1143C21.1797 25.851 18.7539 27.1611 15.5898 27.1611C12.4258 27.1611 10 25.851 10 24.1143V22.5908H21.1797Z" fill="#2C2C2C"/>
<path d="M21.1797 21.0674V22.5908C21.1797 24.3275 18.7539 25.6377 15.5898 25.6377C12.4258 25.6377 10 24.3275 10 22.5908V21.0674H21.1797Z" fill="#4CAF50"/>
<path d="M21.1797 19.5439V21.0674C21.1797 22.8041 18.7539 24.1143 15.5898 24.1143C12.4258 24.1143 10 22.8041 10 21.0674V19.5439H21.1797Z" fill="#2C2C2C"/>
<path d="M21.1797 18.0205V19.5439C21.1797 21.2807 18.7539 22.5908 15.5898 22.5908C12.4258 22.5908 10 21.2807 10 19.5439V18.0205H21.1797Z" fill="#4CAF50"/>
<path d="M21.1797 16.4971V18.0205C21.1797 19.7572 18.7539 21.0674 15.5898 21.0674C12.4258 21.0674 10 19.7572 10 18.0205V16.4971H21.1797Z" fill="#2C2C2C"/>
<path d="M21.1797 14.9736V16.4971C21.1797 18.2338 18.7539 19.5439 15.5898 19.5439C12.4258 19.5439 10 18.2338 10 16.4971V14.9736H21.1797Z" fill="#4CAF50"/>
<path d="M15.5898 11.9268C12.4258 11.9268 10 13.2369 10 14.9736C10 16.7104 12.4258 18.0205 15.5898 18.0205C18.7539 18.0205 21.1797 16.7104 21.1797 14.9736C21.1797 13.2369 18.7539 11.9268 15.5898 11.9268Z" fill="#2C2C2C"/>
<path d="M32.2539 30.208V31.7314C32.2539 33.4682 29.8809 34.7783 26.7168 34.7783C23.5527 34.7783 21.1797 33.4682 21.1797 31.7314V30.208H32.2539Z" fill="#4CAF50"/>
<path d="M32.2539 30.208V31.7314C32.2539 33.4682 29.8809 34.7783 26.7168 34.7783V30.208H32.2539Z" fill="#4CAF50"/>
<path d="M32.2539 28.6846V30.208C32.2539 31.9447 29.8809 33.2549 26.7168 33.2549C23.5527 33.2549 21.1797 31.9447 21.1797 30.208V28.6846H32.2539Z" fill="#2C2C2C"/>
<path d="M32.2539 28.6846V30.208C32.2539 31.9447 29.8809 33.2549 26.7168 33.2549V28.6846H32.2539Z" fill="#2C2C2C"/>
<path d="M32.2539 27.1611V28.6846C32.2539 30.4213 29.8809 31.7314 26.7168 31.7314C23.5527 31.7314 21.1797 30.4213 21.1797 28.6846V27.1611H32.2539Z" fill="#4CAF50"/>
<path d="M32.2539 27.1611V28.6846C32.2539 30.4213 29.8809 31.7314 26.7168 31.7314V27.1611H32.2539Z" fill="#4CAF50"/>
<path d="M32.2539 25.6377V27.1611C32.2539 28.8979 29.8809 30.208 26.7168 30.208C23.5527 30.208 21.1797 28.8979 21.1797 27.1611V25.6377H32.2539Z" fill="#2C2C2C"/>
<path d="M32.2539 25.6377V27.1611C32.2539 28.8979 29.8809 30.208 26.7168 30.208V25.6377H32.2539Z" fill="#2C2C2C"/>
<path d="M32.2539 24.1143V25.6377C32.2539 27.3744 29.8809 28.6846 26.7168 28.6846C23.5527 28.6846 21.1797 27.3744 21.1797 25.6377V24.1143H32.2539Z" fill="#4CAF50"/>
<path d="M32.2539 24.1143V25.6377C32.2539 27.3744 29.8809 28.6846 26.7168 28.6846V24.1143H32.2539Z" fill="#4CAF50"/>
<path d="M32.2539 22.5908V24.1143C32.2539 25.851 29.8809 27.1611 26.7168 27.1611C23.5527 27.1611 21.1797 25.851 21.1797 24.1143V22.5908H32.2539Z" fill="#2C2C2C"/>
<path d="M32.2539 22.5908V24.1143C32.2539 25.851 29.8809 27.1611 26.7168 27.1611V22.5908H32.2539Z" fill="#2C2C2C"/>
<path d="M32.2539 21.0674V22.5908C32.2539 24.3275 29.8809 25.6377 26.7168 25.6377C23.5527 25.6377 21.1797 24.3275 21.1797 22.5908V21.0674H32.2539Z" fill="#4CAF50"/>
<path d="M32.2539 19.5439V21.0674C32.2539 22.8041 29.8809 24.1143 26.7168 24.1143C23.5527 24.1143 21.1797 22.8041 21.1797 21.0674V19.5439H32.2539Z" fill="#2C2C2C"/>
<path d="M32.2539 18.0205V19.5439C32.2539 21.2807 29.8809 22.5908 26.7168 22.5908C23.5527 22.5908 21.1797 21.2807 21.1797 19.5439V18.0205H32.2539Z" fill="#4CAF50"/>
<path d="M26.7168 14.9736C23.5527 14.9736 21.1797 16.2838 21.1797 18.0205C21.1797 19.7572 23.5527 21.0674 26.7168 21.0674C29.8809 21.0674 32.2539 19.7572 32.2539 18.0205C32.2539 16.2838 29.8809 14.9736 26.7168 14.9736Z" fill="#2C2C2C"/>
<path d="M30.6719 23.8857C27.1755 23.8857 24.3438 26.6127 24.3438 29.9795C24.3438 33.3463 27.1755 36.0732 30.6719 36.0732C34.1682 36.0732 37 33.3463 37 29.9795C37 26.6127 34.1682 23.8857 30.6719 23.8857Z" fill="#4CAF50"/>
<path d="M30.6719 25.4092C28.0615 25.4092 25.9258 27.4659 25.9258 29.9795C25.9258 32.4932 28.0615 34.5498 30.6719 34.5498C33.2823 34.5498 35.418 32.4932 35.418 29.9795C35.418 27.4659 33.2823 25.4092 30.6719 25.4092Z" fill="#2C2C2C"/>
<path d="M32.446 29.654V30.146H33.1V30.482H32.446V32H31.954L30.73 30.482H29.428V32H28.834V30.482H28.18V30.146H28.834V29.654H28.18V29.318H28.834V27.8H29.326L30.544 29.318H31.846V27.8H32.446V29.318H33.1V29.654H32.446ZM29.428 29.318H29.794L29.428 28.862V29.318ZM30.46 30.146L30.064 29.654H29.428V30.146H30.46ZM31.846 29.654H30.814L31.21 30.146H31.846V29.654ZM31.846 30.482H31.48L31.846 30.938V30.482Z" fill="white"/>
<circle cx="24" cy="24" r="24" fill="#4CAF50" fill-opacity="0.04"/>
</svg>
