<svg xmlns="http://www.w3.org/2000/svg" width="13" height="15" viewBox="0 0 26.457 30.236"><defs><style>.a{fill:#4caf50;}</style></defs><path d="M13.224,28.346a1.893,1.893,0,0,1-1.89-1.892H9.444a3.78,3.78,0,1,0,7.559,0h-1.89A1.893,1.893,0,0,1,13.224,28.346Zm12.365-8.574c-1.651-1.572-2.914-3.217-2.914-8.794a9.214,9.214,0,0,0-8.506-9V.945a.945.945,0,1,0-1.89,0V1.982a9.214,9.214,0,0,0-8.506,9c0,5.576-1.263,7.222-2.914,8.794A2.749,2.749,0,0,0,.194,22.8,2.818,2.818,0,0,0,2.83,24.567H23.617a2.818,2.818,0,0,0,2.636-1.77A2.748,2.748,0,0,0,25.589,19.772Zm-1.971,2.9H2.83a.9.9,0,0,1-.668-1.536c2.059-1.96,3.5-4.154,3.5-10.162a7.383,7.383,0,0,1,7.561-7.2,7.383,7.383,0,0,1,7.561,7.2c0,5.985,1.43,8.191,3.5,10.162A.9.9,0,0,1,23.617,22.677Z" transform="translate(0.005)"/></svg>