<svg xmlns="http://www.w3.org/2000/svg" width="21.589" height="22.275" viewBox="0 0 21.589 22.275"><defs><style>.a{fill:#6e7272;}</style></defs><path class="a" d="M35.26,18.284l1.43-.826a1.079,1.079,0,0,0,.5-1.215,11.118,11.118,0,0,0-2.877-4.976,1.078,1.078,0,0,0-1.3-.171l-1.427.824a8.815,8.815,0,0,0-1.477-.854V9.416a1.078,1.078,0,0,0-.8-1.042,11.21,11.21,0,0,0-5.745,0,1.079,1.079,0,0,0-.8,1.042v1.651a8.815,8.815,0,0,0-1.477.854L19.855,11.1a1.078,1.078,0,0,0-1.3.171,11.118,11.118,0,0,0-2.877,4.976,1.079,1.079,0,0,0,.5,1.215l1.43.826a8.879,8.879,0,0,0,0,1.706l-1.43.826a1.079,1.079,0,0,0-.5,1.215,11.118,11.118,0,0,0,2.877,4.976,1.078,1.078,0,0,0,1.3.171l1.427-.824a8.812,8.812,0,0,0,1.477.854v1.651a1.079,1.079,0,0,0,.8,1.042,11.21,11.21,0,0,0,5.745,0,1.079,1.079,0,0,0,.8-1.042V27.207a8.817,8.817,0,0,0,1.477-.854l1.427.824a1.078,1.078,0,0,0,1.3-.171,11.118,11.118,0,0,0,2.877-4.976,1.079,1.079,0,0,0-.5-1.215l-1.43-.826A8.879,8.879,0,0,0,35.26,18.284Zm-2.366,2.83,1.968,1.136a8.988,8.988,0,0,1-1.52,2.628l-1.968-1.137a7.651,7.651,0,0,1-3.421,1.977v2.272a9.024,9.024,0,0,1-3.037,0V25.719A7.652,7.652,0,0,1,21.5,23.741l-1.968,1.137a8.988,8.988,0,0,1-1.52-2.628l1.968-1.136a7.73,7.73,0,0,1,0-3.954l-1.968-1.136a8.99,8.99,0,0,1,1.52-2.628L21.5,14.532a7.651,7.651,0,0,1,3.421-1.977V10.283a9.023,9.023,0,0,1,3.037,0v2.272a7.652,7.652,0,0,1,3.421,1.977L33.342,13.4a8.988,8.988,0,0,1,1.52,2.628L32.894,17.16A7.729,7.729,0,0,1,32.894,21.114Zm-6.46-6.288a4.311,4.311,0,1,0,4.311,4.311A4.316,4.316,0,0,0,26.434,14.826Zm0,6.467a2.156,2.156,0,1,1,2.156-2.156A2.158,2.158,0,0,1,26.434,21.293Z" transform="translate(-15.64 -7.999)"/></svg>