<svg xmlns="http://www.w3.org/2000/svg" width="24.115" height="21.101" viewBox="0 0 24.115 21.101">
  <path id="wallet.3" d="M21.1,35.768v-.754A3.014,3.014,0,0,0,18.087,32H4.522A4.522,4.522,0,0,0,0,36.522V48.579A4.522,4.522,0,0,0,4.522,53.1H21.1a3.014,3.014,0,0,0,3.014-3.014v-11.3A3.014,3.014,0,0,0,21.1,35.768Zm.754,14.318a.755.755,0,0,1-.754.754H4.522a2.263,2.263,0,0,1-2.261-2.261V36.522a2.263,2.263,0,0,1,2.261-2.261H18.087a.755.755,0,0,1,.754.754v1.507H5.275a.754.754,0,1,0,0,1.507H21.1a.755.755,0,0,1,.754.754ZM18.087,42.55a1.507,1.507,0,1,0,1.507,1.507A1.507,1.507,0,0,0,18.087,42.55Z" transform="translate(0 -32)" fill="#4caf50"/>
</svg>
