<svg width="48" height="48" viewBox="0 0 48 48" fill="none" xmlns="http://www.w3.org/2000/svg">
<path d="M30.125 27.125V29C30.125 31.1375 27.3125 32.75 23.5625 32.75C19.8125 32.75 17 31.1375 17 29V27.125H30.125Z" fill="#4CAF50"/>
<path d="M30.125 27.125V29C30.125 31.1375 27.3125 32.75 23.5625 32.75V27.125H30.125Z" fill="#4CAF50"/>
<path d="M30.125 25.25V27.125C30.125 29.2625 27.3125 30.875 23.5625 30.875C19.8125 30.875 17 29.2625 17 27.125V25.25H30.125Z" fill="#2C2C2C"/>
<path d="M30.125 25.25V27.125C30.125 29.2625 27.3125 30.875 23.5625 30.875V25.25H30.125Z" fill="#2C2C2C"/>
<path d="M30.125 23.375V25.25C30.125 27.3875 27.3125 29 23.5625 29C19.8125 29 17 27.3875 17 25.25V23.375H30.125Z" fill="#4CAF50"/>
<path d="M30.125 23.375V25.25C30.125 27.3875 27.3125 29 23.5625 29V23.375H30.125Z" fill="#4CAF50"/>
<path d="M30.125 21.5V23.375C30.125 25.5125 27.3125 27.125 23.5625 27.125C19.8125 27.125 17 25.5125 17 23.375V21.5H30.125Z" fill="#2C2C2C"/>
<path d="M30.125 21.5V23.375C30.125 25.5125 27.3125 27.125 23.5625 27.125V21.5H30.125Z" fill="#2C2C2C"/>
<path d="M30.125 19.625V21.5C30.125 23.6375 27.3125 25.25 23.5625 25.25C19.8125 25.25 17 23.6375 17 21.5V19.625H30.125Z" fill="#4CAF50"/>
<path d="M30.125 19.625V21.5C30.125 23.6375 27.3125 25.25 23.5625 25.25V19.625H30.125Z" fill="#4CAF50"/>
<path d="M30.125 17.75V19.625C30.125 21.7625 27.3125 23.375 23.5625 23.375C19.8125 23.375 17 21.7625 17 19.625V17.75H30.125Z" fill="#2C2C2C"/>
<path d="M30.125 17.75V19.625C30.125 21.7625 27.3125 23.375 23.5625 23.375V17.75H30.125Z" fill="#2C2C2C"/>
<path d="M30.125 15.875V17.75C30.125 19.8875 27.3125 21.5 23.5625 21.5C19.8125 21.5 17 19.8875 17 17.75V15.875H30.125Z" fill="#4CAF50"/>
<path d="M30.125 14V15.875C30.125 18.0125 27.3125 19.625 23.5625 19.625C19.8125 19.625 17 18.0125 17 15.875V14H30.125Z" fill="#2C2C2C"/>
<path d="M28.25 19.3438C24.1062 19.3438 20.75 22.7001 20.75 26.8438C20.75 30.9876 24.1062 34.3438 28.25 34.3438C32.3938 34.3438 35.75 30.9876 35.75 26.8438C35.75 22.7001 32.3938 19.3438 28.25 19.3438Z" fill="#4CAF50"/>
<path d="M28.25 21.2188C25.1562 21.2188 22.625 23.7501 22.625 26.8438C22.625 29.9376 25.1562 32.4688 28.25 32.4688C31.3438 32.4688 33.875 29.9376 33.875 26.8438C33.875 23.7501 31.3438 21.2188 28.25 21.2188Z" fill="#2C2C2C"/>
<path d="M30.196 27.1384V27.6304H30.85V27.9664H30.196V29.4844H29.704L28.48 27.9664H27.178V29.4844H26.584V27.9664H25.93V27.6304H26.584V27.1384H25.93V26.8024H26.584V25.2844H27.076L28.294 26.8024H29.596V25.2844H30.196V26.8024H30.85V27.1384H30.196ZM27.178 26.8024H27.544L27.178 26.3464V26.8024ZM28.21 27.6304L27.814 27.1384H27.178V27.6304H28.21ZM29.596 27.1384H28.564L28.96 27.6304H29.596V27.1384ZM29.596 27.9664H29.23L29.596 28.4224V27.9664Z" fill="white"/>
<circle cx="24" cy="24" r="24" fill="#4CAF50" fill-opacity="0.04"/>
</svg>
