<svg xmlns="http://www.w3.org/2000/svg" width="42" height="42" viewBox="0 0 42 42">
  <g id="Group_1188" data-name="Group 1188" transform="translate(-512 -65)">
    <circle id="Ellipse_500" data-name="Ellipse 500" cx="21" cy="21" r="21" transform="translate(512 65)" fill="#fff"/>
    <path id="arrow-circle-right.2" d="M41.449,24.725A16.725,16.725,0,1,1,24.725,8,16.722,16.722,0,0,1,41.449,24.725ZM24.725,10.158A14.567,14.567,0,1,0,39.291,24.725,14.566,14.566,0,0,0,24.725,10.158ZM23.882,16.4,16.12,24.151a.81.81,0,0,0,0,1.146l7.762,7.755a.81.81,0,0,0,1.146,0l.465-.465a.806.806,0,0,0-.013-1.153l-5.773-5.564h12.84a.812.812,0,0,0,.809-.809v-.674a.812.812,0,0,0-.809-.809H19.714l5.773-5.564a.812.812,0,0,0,.013-1.153l-.465-.465a.818.818,0,0,0-1.153,0Z" transform="translate(508.275 61.275)" fill="#4caf50"/>
  </g>
</svg>

