<svg xmlns="http://www.w3.org/2000/svg" width="22.273" height="17.323" viewBox="0 0 22.273 17.323"><defs><style>.a{fill:#4caf50;}</style></defs><path class="a" d="M0,47.467a1.857,1.857,0,0,0,1.856,1.856H20.417a1.857,1.857,0,0,0,1.856-1.856V40.662H0Zm7.424-2.629a.465.465,0,0,1,.464-.464h5.259a.465.465,0,0,1,.464.464v1.547a.465.465,0,0,1-.464.464H7.888a.465.465,0,0,1-.464-.464Zm-4.95,0a.465.465,0,0,1,.464-.464H5.723a.465.465,0,0,1,.464.464v1.547a.465.465,0,0,1-.464.464H2.939a.465.465,0,0,1-.464-.464Zm19.8-10.982v1.856H0V33.856A1.857,1.857,0,0,1,1.856,32H20.417A1.857,1.857,0,0,1,22.273,33.856Z" transform="translate(0 -32)"/></svg>