<svg xmlns="http://www.w3.org/2000/svg" width="48" height="48" viewBox="0 0 48 48">
  <g id="Group_1062" data-name="Group 1062" transform="translate(-1398 -942)">
    <circle id="Ellipse_495" data-name="Ellipse 495" cx="24" cy="24" r="24" transform="translate(1398 942)" fill="#2fa3e6"/>
    <path id="telegram-plane" d="M21.392,66.036,18.157,81.292c-.244,1.077-.881,1.345-1.785.837L11.443,78.5,9.065,80.785a1.238,1.238,0,0,1-.991.483l.354-5.02,9.136-8.255c.4-.354-.086-.55-.617-.2L5.653,74.908.791,73.387c-1.058-.33-1.077-1.058.22-1.565L20.029,64.5C20.909,64.165,21.68,64.691,21.392,66.036Z" transform="translate(1410.984 892.601)" fill="#fff"/>
  </g>
</svg>

