<svg xmlns="http://www.w3.org/2000/svg" width="48" height="48" viewBox="0 0 48 48">
  <g id="Group_1060" data-name="Group 1060" transform="translate(-1264 -942)">
    <circle id="Ellipse_494" data-name="Ellipse 494" cx="24" cy="24" r="24" transform="translate(1264 942)" fill="#1bd741"/>
    <path id="FontAwsome_whatsapp_" data-name="FontAwsome (whatsapp)" d="M17.405,34.975A10.147,10.147,0,0,0,1.439,47.216L0,52.471l5.378-1.412a10.113,10.113,0,0,0,4.848,1.234h0a10.08,10.08,0,0,0,7.174-17.318ZM10.231,50.584a8.416,8.416,0,0,1-4.3-1.174l-.306-.183-3.189.836.85-3.112-.2-.32a8.448,8.448,0,1,1,15.669-4.483A8.526,8.526,0,0,1,10.231,50.584Zm4.624-6.315c-.251-.128-1.5-.74-1.732-.823s-.4-.128-.571.128-.653.823-.8,1-.3.192-.548.064a6.9,6.9,0,0,1-3.45-3.016c-.26-.448.26-.416.745-1.385a.47.47,0,0,0-.023-.443c-.064-.128-.571-1.375-.781-1.883s-.416-.425-.571-.434-.315-.009-.484-.009a.939.939,0,0,0-.676.315A2.848,2.848,0,0,0,5.072,39.9,4.966,4.966,0,0,0,6.1,42.519a11.327,11.327,0,0,0,4.332,3.829,4.96,4.96,0,0,0,3.043.635,2.6,2.6,0,0,0,1.709-1.206,2.12,2.12,0,0,0,.146-1.206C15.276,44.456,15.107,44.392,14.855,44.269Z" transform="translate(1278 924)" fill="#fff"/>
  </g>
</svg>
