<svg width="48" height="48" viewBox="0 0 48 48" fill="none" xmlns="http://www.w3.org/2000/svg">
<g clip-path="url(#clip0)">
<path d="M30.875 29.5C28.6008 29.5 26.75 27.6493 26.75 25.375C26.75 23.1008 28.6008 21.25 30.875 21.25H33.1667V19.4167C33.1667 18.4056 32.3444 17.5833 31.3333 17.5833H30.4167V15.75C30.4167 14.7389 29.5944 13.9167 28.5833 13.9167H15.75C14.3906 13.9167 13.2668 14.9103 13.0468 16.2074C13.0266 16.2826 13 16.3559 13 16.4375V30.4167C13 31.9329 14.2338 33.1667 15.75 33.1667H31.3333C32.3444 33.1667 33.1667 32.3444 33.1667 31.3334V29.5H30.875ZM14.8333 16.6667C14.8333 16.1616 15.244 15.75 15.75 15.75H28.5833V17.5833H15.75C15.244 17.5833 14.8333 17.1718 14.8333 16.6667Z" fill="#754669" fill-opacity="0.85"/>
<path d="M34.3125 22.625H30.875C29.3588 22.625 28.125 23.8588 28.125 25.375C28.125 26.8912 29.3588 28.125 30.875 28.125H34.3125C34.692 28.125 35 27.817 35 27.4375V23.3125C35 22.933 34.692 22.625 34.3125 22.625ZM30.875 26.2917C30.369 26.2917 29.9583 25.881 29.9583 25.375C29.9583 24.869 30.369 24.4583 30.875 24.4583C31.381 24.4583 31.7917 24.869 31.7917 25.375C31.7917 25.881 31.381 26.2917 30.875 26.2917Z" fill="#754669" fill-opacity="0.85"/>
</g>
<circle cx="24" cy="24" r="24" fill="#4CAF50" fill-opacity="0.03"/>
<defs>
<clipPath id="clip0">
<rect width="22" height="22" fill="white" transform="translate(13 13)"/>
</clipPath>
</defs>
</svg>
