<svg xmlns="http://www.w3.org/2000/svg" width="20.471" height="20.471" viewBox="0 0 20.471 20.471">
  <path id="facebook-square" d="M18.278,32H2.193A2.193,2.193,0,0,0,0,34.193V50.278a2.193,2.193,0,0,0,2.193,2.193H8.465v-6.96H5.586V42.236H8.465v-2.5c0-2.84,1.691-4.409,4.28-4.409a17.44,17.44,0,0,1,2.537.221v2.787H13.853a1.638,1.638,0,0,0-1.847,1.77v2.127h3.143l-.5,3.276h-2.64v6.96h6.272a2.193,2.193,0,0,0,2.193-2.193V34.193A2.193,2.193,0,0,0,18.278,32Z" transform="translate(0 -32)" fill="#395d45"/>
</svg>
