<svg id="Group_1000" data-name="Group 1000" xmlns="http://www.w3.org/2000/svg" width="24.408" height="17.323" viewBox="0 0 24.408 17.323">
  <path id="Path_1359" data-name="Path 1359" d="M-54,228.2h1.757a1.039,1.039,0,0,0,1.03-.878,4.792,4.792,0,0,1,4.7-4.006h7.583v1.225a1.036,1.036,0,0,0,.547.913,1.051,1.051,0,0,0,1.064-.039l6.2-4a1.033,1.033,0,0,0,.434-1.166,1.041,1.041,0,0,0-1-.747H-46.506a8.586,8.586,0,0,0-8.53,7.535,1.06,1.06,0,0,0,.254.815A1.068,1.068,0,0,0-54,228.2Z" transform="translate(55.045 -219.5)" fill="#e81c1c"/>
  <path id="Path_1360" data-name="Path 1360" d="M-30.948,396.651a1.044,1.044,0,0,0-.781-.351h-1.757a1.039,1.039,0,0,0-1.03.878,4.792,4.792,0,0,1-4.7,4.006H-46.8V399.96a1.036,1.036,0,0,0-.547-.913,1.051,1.051,0,0,0-1.064.039l-6.2,4a1.033,1.033,0,0,0-.434,1.166,1.041,1.041,0,0,0,1,.747h14.82a8.586,8.586,0,0,0,8.53-7.534A1.007,1.007,0,0,0-30.948,396.651Z" transform="translate(55.088 -387.673)" fill="#e81c1c"/>
</svg>
