<svg xmlns="http://www.w3.org/2000/svg" width="22.666" height="22.666" viewBox="0 0 22.666 22.666"><defs><style>.a{fill:#6e7272;}</style></defs><path class="a" d="M11.333,12.387a4.387,4.387,0,1,0,4.387,4.387A4.388,4.388,0,0,0,11.333,12.387Zm0,6.58a2.193,2.193,0,1,1,2.194-2.193A2.194,2.194,0,0,1,11.333,18.967ZM11.333,8A11.333,11.333,0,1,0,22.666,19.333,11.331,11.331,0,0,0,11.333,8Zm0,20.472a9.088,9.088,0,0,1-5.945-2.212,3.937,3.937,0,0,1,3.181-1.805,9.3,9.3,0,0,0,2.765.439,9.153,9.153,0,0,0,2.765-.439,3.948,3.948,0,0,1,3.181,1.805A9.088,9.088,0,0,1,11.333,28.472Zm7.435-3.843a6.062,6.062,0,0,0-4.8-2.372,13.714,13.714,0,0,1-2.632.439A13.788,13.788,0,0,1,8.7,22.258a6.075,6.075,0,0,0-4.8,2.372,9.135,9.135,0,1,1,16.575-5.3A9.074,9.074,0,0,1,18.768,24.629Z" transform="translate(0 -8)"/></svg>