<svg xmlns="http://www.w3.org/2000/svg" width="52.715" height="61.929" viewBox="0 0 52.715 61.929">
  <g id="Group_1013" data-name="Group 1013" transform="translate(-77.11 -312.854)">
    <g id="Group_1011" data-name="Group 1011" transform="translate(77.11 312.854)">
      <path id="Path_2300" data-name="Path 2300" d="M122.85,318.947l-8.026-4.633h-.017l-.083-.049-.008.017c-3.991-2.253-9.462-1.921-15.523,1.579-5.671,3.268-10.843,8.723-14.742,15.033-4.507,7.267-7.342,15.681-7.342,23.222,0,7.034,2.461,11.973,6.443,14.285v.008l.025.008,8.148,4.653c4.024,2.566,9.706,2.338,16.008-1.3,12.2-7.043,22.089-24.172,22.09-38.258C129.825,326.178,127.141,321.122,122.85,318.947Z" transform="translate(-77.11 -312.854)" fill="#4caf50"/>
      <g id="Group_1010" data-name="Group 1010" transform="translate(0 0.002)">
        <path id="Path_2301" data-name="Path 2301" d="M91.568,376.59l-7.993-4.567-.025-.008v-.008c-3.983-2.308-6.441-7.25-6.441-14.283,0-7.542,2.833-15.95,7.341-23.217l8.525,4.917c-4.508,7.267-7.333,15.667-7.333,23.2C85.643,369.348,87.893,374.156,91.568,376.59Z" transform="translate(-77.11 -316.464)" opacity="0.1"/>
        <path id="Path_2302" data-name="Path 2302" d="M124.153,318.856c-3.933-1.908-9.183-1.425-14.949,1.9-5.676,3.283-10.851,8.742-14.759,15.058L85.919,330.9c3.9-6.317,9.075-11.767,14.743-15.033,6.058-3.5,11.533-3.833,15.524-1.583l.008-.017.083.05h.017Z" transform="translate(-78.578 -312.856)" fill="#fff" opacity="0.4"/>
      </g>
    </g>
    <g id="Group_1012" data-name="Group 1012" transform="translate(98.561 331.754)">
      <path id="Path_2303" data-name="Path 2303" d="M115.079,352.317v7.748a2.655,2.655,0,0,1-.27,1.144,1.7,1.7,0,0,1-.642.787l-4.256,2.458a.489.489,0,0,1-.643-.045,1.113,1.113,0,0,1-.27-.832v-7.748l-5.236,3.023a.489.489,0,0,1-.642-.046,1.107,1.107,0,0,1-.27-.832V352.72a2.654,2.654,0,0,1,.27-1.144,1.712,1.712,0,0,1,.642-.787L109,347.766v-7.747a2.661,2.661,0,0,1,.27-1.144,1.709,1.709,0,0,1,.643-.787l4.256-2.458a.49.49,0,0,1,.642.046,1.113,1.113,0,0,1,.27.832v7.748l5.2-3a.49.49,0,0,1,.642.045,1.116,1.116,0,0,1,.27.833v5.253a2.654,2.654,0,0,1-.27,1.143,1.7,1.7,0,0,1-.642.787Z" transform="translate(-102.851 -335.534)" fill="#fff"/>
    </g>
  </g>
</svg>
