<svg width="48" height="48" viewBox="0 0 48 48" fill="none" xmlns="http://www.w3.org/2000/svg">
<path d="M27.5352 30.3359V32.2695C27.5352 34.4738 24.6348 36.1367 20.7676 36.1367C16.9004 36.1367 14 34.4738 14 32.2695V30.3359H27.5352Z" fill="#4CAF50"/>
<path d="M27.5352 30.3359V32.2695C27.5352 34.4738 24.6348 36.1367 20.7676 36.1367V30.3359H27.5352Z" fill="#4CAF50"/>
<path d="M27.5352 28.4023V30.3359C27.5352 32.5402 24.6348 34.2031 20.7676 34.2031C16.9004 34.2031 14 32.5402 14 30.3359V28.4023H27.5352Z" fill="#2C2C2C"/>
<path d="M27.5352 28.4023V30.3359C27.5352 32.5402 24.6348 34.2031 20.7676 34.2031V28.4023H27.5352Z" fill="#2C2C2C"/>
<path d="M27.5352 26.4688V28.4023C27.5352 30.6066 24.6348 32.2695 20.7676 32.2695C16.9004 32.2695 14 30.6066 14 28.4023V26.4688H27.5352Z" fill="#4CAF50"/>
<path d="M27.5352 26.4688V28.4023C27.5352 30.6066 24.6348 32.2695 20.7676 32.2695V26.4688H27.5352Z" fill="#4CAF50"/>
<path d="M27.5352 24.5352V26.4688C27.5352 28.673 24.6348 30.3359 20.7676 30.3359C16.9004 30.3359 14 28.673 14 26.4688V24.5352H27.5352Z" fill="#2C2C2C"/>
<path d="M27.5352 24.5352V26.4688C27.5352 28.673 24.6348 30.3359 20.7676 30.3359V24.5352H27.5352Z" fill="#2C2C2C"/>
<path d="M27.5352 22.6016V24.5352C27.5352 26.7395 24.6348 28.4023 20.7676 28.4023C16.9004 28.4023 14 26.7395 14 24.5352V22.6016H27.5352Z" fill="#4CAF50"/>
<path d="M27.5352 22.6016V24.5352C27.5352 26.7395 24.6348 28.4023 20.7676 28.4023V22.6016H27.5352Z" fill="#4CAF50"/>
<path d="M27.5352 20.668V22.6016C27.5352 24.8059 24.6348 26.4688 20.7676 26.4688C16.9004 26.4688 14 24.8059 14 22.6016V20.668H27.5352Z" fill="#2C2C2C"/>
<path d="M27.5352 20.668V22.6016C27.5352 24.8059 24.6348 26.4688 20.7676 26.4688V20.668H27.5352Z" fill="#2C2C2C"/>
<path d="M27.5352 18.7344V20.668C27.5352 22.8723 24.6348 24.5352 20.7676 24.5352C16.9004 24.5352 14 22.8723 14 20.668V18.7344H27.5352Z" fill="#4CAF50"/>
<path d="M27.5352 16.8008V18.7344C27.5352 20.9387 24.6348 22.6016 20.7676 22.6016C16.9004 22.6016 14 20.9387 14 18.7344V16.8008H27.5352Z" fill="#2C2C2C"/>
<path d="M27.5352 14.8672V16.8008C27.5352 19.0051 24.6348 20.668 20.7676 20.668C16.9004 20.668 14 19.0051 14 16.8008V14.8672H27.5352Z" fill="#4CAF50"/>
<path d="M20.7676 11C16.9004 11 14 12.6629 14 14.8672C14 17.0715 16.9004 18.7344 20.7676 18.7344C24.6348 18.7344 27.5352 17.0715 27.5352 14.8672C27.5352 12.6629 24.6348 11 20.7676 11Z" fill="#2C2C2C"/>
<path d="M25.6016 22.3115C21.3283 22.3115 17.8672 25.7727 17.8672 30.0459C17.8672 34.3192 21.3283 37.7803 25.6016 37.7803C29.8749 37.7803 33.3359 34.3192 33.3359 30.0459C33.3359 25.7727 29.8749 22.3115 25.6016 22.3115Z" fill="#4CAF50"/>
<path d="M25.6016 24.2451C22.4111 24.2451 19.8008 26.8555 19.8008 30.0459C19.8008 33.2364 22.4111 35.8467 25.6016 35.8467C28.7921 35.8467 31.4023 33.2364 31.4023 30.0459C31.4023 26.8555 28.7921 24.2451 25.6016 24.2451Z" fill="#2C2C2C"/>
<path d="M27.2819 29.6105V30.1025H27.9359V30.4385H27.2819V31.9565H26.7899L25.5659 30.4385H24.2639V31.9565H23.6699V30.4385H23.0159V30.1025H23.6699V29.6105H23.0159V29.2745H23.6699V27.7565H24.1619L25.3799 29.2745H26.6819V27.7565H27.2819V29.2745H27.9359V29.6105H27.2819ZM24.2639 29.2745H24.6299L24.2639 28.8185V29.2745ZM25.2959 30.1025L24.8999 29.6105H24.2639V30.1025H25.2959ZM26.6819 29.6105H25.6499L26.0459 30.1025H26.6819V29.6105ZM26.6819 30.4385H26.3159L26.6819 30.8945V30.4385Z" fill="white"/>
<circle cx="24" cy="24" r="24" fill="#4CAF50" fill-opacity="0.04"/>
</svg>
