<svg xmlns="http://www.w3.org/2000/svg" width="80" height="80" viewBox="0 0 80 80">
  <g id="Group_1170" data-name="Group 1170" transform="translate(-317 -485)">
    <circle id="Ellipse_499" data-name="Ellipse 499" cx="40" cy="40" r="40" transform="translate(317 485)" fill="#f8f8f8"/>
    <g id="Watermark_Logo" data-name="Watermark/Logo" transform="translate(336.454 517.268)">
      <g id="NEW">
        <g id="_x31_024">
          <path id="Path_1359" data-name="Path 1359" d="M55.183,274.1H19.072a2.507,2.507,0,0,0-2.477,2.5,2.54,2.54,0,0,0,.024.333c.024.122.049.243.075.364a20.417,20.417,0,0,0,.683,2.45,14.422,14.422,0,0,0,2.951.3,14.172,14.172,0,0,0,8.509-2.81l.056-.043a7.808,7.808,0,0,1,9.7.367c.024.019.045.04.069.06a12.818,12.818,0,0,0,8.362,3.1,12.688,12.688,0,0,0,7.89-2.717c.02-.018.04-.031.054-.043a7.814,7.814,0,0,1,2.715-1.369v0A2.5,2.5,0,0,0,55.183,274.1Z" transform="translate(-16.595 -274.101)" fill="#5cb85c"/>
          <path id="Path_1360" data-name="Path 1360" d="M99.515,371.066a15.173,15.173,0,0,1-19.278-.451l-.047-.04a5.453,5.453,0,0,0-6.762-.276c-.019.016-.04.033-.06.047a16.656,16.656,0,0,1-11.784,3.172,20.978,20.978,0,0,0,5.606,6.9,10.033,10.033,0,0,1,11.445-2.646l.068.029c.021.009.043.018.063.028a15.079,15.079,0,0,0,12.648-.458c.04-.022.081-.044.122-.065l.053-.028a6.341,6.341,0,0,1,5.137-.259,20.716,20.716,0,0,0,3.424-6.391,5.635,5.635,0,0,0-.589.4Z" transform="translate(-59.718 -365.311)" fill="#5cb85c"/>
          <path id="Path_1361" data-name="Path 1361" d="M266.851,603.5l-.035.019c-.02.01-.043.021-.063.034l-.052.028a17.432,17.432,0,0,1-14.676.535l-.068-.029-.062-.028a7.683,7.683,0,0,0-8.584,1.86,20.822,20.822,0,0,0,25.846-2.808,4.047,4.047,0,0,0-.518-.034A3.931,3.931,0,0,0,266.851,603.5Z" transform="translate(-233.909 -589.432)" fill="#5cb85c"/>
        </g>
      </g>
    </g>
  </g>
</svg>
