<svg width="66" height="55" viewBox="0 0 66 55" fill="none" xmlns="http://www.w3.org/2000/svg">
<rect width="66" height="55" rx="4" fill="#2C2C2C"/>
<g filter="url(#filter0_d)">
<path d="M28.7109 9H18.1641C16.4193 9 15 10.4193 15 12.1641V22.7109C15 24.4557 16.4193 25.875 18.1641 25.875H28.7109C30.4557 25.875 31.875 24.4557 31.875 22.7109V12.1641C31.875 10.4193 30.4557 9 28.7109 9ZM47.8359 9H37.2891C35.5443 9 34.125 10.4193 34.125 12.1641V22.7109C34.125 24.4557 35.5443 25.875 37.2891 25.875H47.8359C49.5807 25.875 51 24.4557 51 22.7109V12.1641C51 10.4193 49.5807 9 47.8359 9ZM28.7109 28.125H18.1641C16.4193 28.125 15 29.5443 15 31.2891V41.8359C15 43.5807 16.4193 45 18.1641 45H28.7109C30.4557 45 31.875 43.5807 31.875 41.8359V31.2891C31.875 29.5443 30.4557 28.125 28.7109 28.125ZM47.8359 28.125H37.2891C35.5443 28.125 34.125 29.5443 34.125 31.2891V41.8359C34.125 43.5807 35.5443 45 37.2891 45H47.8359C49.5807 45 51 43.5807 51 41.8359V31.2891C51 29.5443 49.5807 28.125 47.8359 28.125Z" fill="white"/>
<path d="M39.3984 18.4922H45.7266C46.3095 18.4922 46.7812 18.0205 46.7812 17.4375C46.7812 16.8545 46.3095 16.3828 45.7266 16.3828H39.3984C38.8155 16.3828 38.3438 16.8545 38.3438 17.4375C38.3438 18.0205 38.8155 18.4922 39.3984 18.4922ZM26.6016 16.3828H24.4922V14.2734C24.4922 13.6905 24.0205 13.2188 23.4375 13.2188C22.8545 13.2188 22.3828 13.6905 22.3828 14.2734V16.3828H20.2734C19.6905 16.3828 19.2188 16.8545 19.2188 17.4375C19.2188 18.0205 19.6905 18.4922 20.2734 18.4922H22.3828V20.6016C22.3828 21.1845 22.8545 21.6562 23.4375 21.6562C24.0205 21.6562 24.4922 21.1845 24.4922 20.6016V18.4922H26.6016C27.1845 18.4922 27.6562 18.0205 27.6562 17.4375C27.6562 16.8545 27.1845 16.3828 26.6016 16.3828ZM26.4203 33.5797C26.0083 33.1677 25.3409 33.1677 24.9289 33.5797L23.4375 35.0711L21.9461 33.5797C21.5341 33.1677 20.8667 33.1677 20.4547 33.5797C20.0427 33.9917 20.0427 34.6591 20.4547 35.0711L21.9461 36.5625L20.4547 38.0539C20.0427 38.4659 20.0427 39.1333 20.4547 39.5453C20.8667 39.9573 21.5341 39.9573 21.9461 39.5453L23.4375 38.0539L24.9289 39.5453C25.3409 39.9573 26.0083 39.9573 26.4203 39.5453C26.8323 39.1333 26.8323 38.4659 26.4203 38.0539L24.9289 36.5625L26.4203 35.0711C26.8323 34.6591 26.8323 33.9917 26.4203 33.5797ZM45.7266 33.3984H39.3984C38.8155 33.3984 38.3438 33.8702 38.3438 34.4531C38.3438 35.0361 38.8155 35.5078 39.3984 35.5078H45.7266C46.3095 35.5078 46.7812 35.0361 46.7812 34.4531C46.7812 33.8702 46.3095 33.3984 45.7266 33.3984ZM45.7266 37.6172H39.3984C38.8155 37.6172 38.3438 38.0889 38.3438 38.6719C38.3438 39.2548 38.8155 39.7266 39.3984 39.7266H45.7266C46.3095 39.7266 46.7812 39.2548 46.7812 38.6719C46.7812 38.0889 46.3095 37.6172 45.7266 37.6172Z" fill="#4CAF50"/>
</g>
<defs>
<filter id="filter0_d" x="11" y="9" width="44" height="44" filterUnits="userSpaceOnUse" color-interpolation-filters="sRGB">
<feFlood flood-opacity="0" result="BackgroundImageFix"/>
<feColorMatrix in="SourceAlpha" type="matrix" values="0 0 0 0 0 0 0 0 0 0 0 0 0 0 0 0 0 0 127 0" result="hardAlpha"/>
<feOffset dy="4"/>
<feGaussianBlur stdDeviation="2"/>
<feComposite in2="hardAlpha" operator="out"/>
<feColorMatrix type="matrix" values="0 0 0 0 0 0 0 0 0 0 0 0 0 0 0 0 0 0 0.1 0"/>
<feBlend mode="normal" in2="BackgroundImageFix" result="effect1_dropShadow"/>
<feBlend mode="normal" in="SourceGraphic" in2="effect1_dropShadow" result="shape"/>
</filter>
</defs>
</svg>
