<svg xmlns="http://www.w3.org/2000/svg" width="48" height="48" viewBox="0 0 48 48">
  <g id="Group_1063" data-name="Group 1063" transform="translate(-1463 -942)">
    <circle id="Ellipse_496" data-name="Ellipse 496" cx="24" cy="24" r="24" transform="translate(1463 942)" fill="#0078b5"/>
    <path id="linkedin-in" d="M4.922,22H.363V7.318H4.922ZM2.64,5.316A2.653,2.653,0,1,1,5.281,2.65,2.663,2.663,0,0,1,2.64,5.316ZM21.986,22H17.436V14.853c0-1.7-.034-3.888-2.37-3.888-2.37,0-2.734,1.851-2.734,3.765V22H7.778V7.318h4.373v2h.064A4.791,4.791,0,0,1,16.528,6.95c4.614,0,5.462,3.038,5.462,6.985V22Z" transform="translate(1476 954.99)" fill="#fff"/>
  </g>
</svg>
