<svg xmlns="http://www.w3.org/2000/svg" xmlns:xlink="http://www.w3.org/1999/xlink" width="414.376" height="57" viewBox="0 0 414.376 57">
  <defs>
    <linearGradient id="linear-gradient" x1="0.915" y1="6.614" x2="-0.383" y2="5.945" gradientUnits="objectBoundingBox">
      <stop offset="0" stop-color="#00a0ff"/>
      <stop offset="0.007" stop-color="#00a1ff"/>
      <stop offset="0.26" stop-color="#00beff"/>
      <stop offset="0.512" stop-color="#00d2ff"/>
      <stop offset="0.76" stop-color="#00dfff"/>
      <stop offset="1" stop-color="#00e3ff"/>
    </linearGradient>
    <linearGradient id="linear-gradient-2" x1="1.076" y1="17.098" x2="-1.305" y2="17.098" gradientUnits="objectBoundingBox">
      <stop offset="0" stop-color="#ffe000"/>
      <stop offset="0.409" stop-color="#ffbd00"/>
      <stop offset="0.775" stop-color="orange"/>
      <stop offset="1" stop-color="#ff9c00"/>
    </linearGradient>
    <linearGradient id="linear-gradient-3" x1="0.862" y1="10.863" x2="-0.501" y2="9.093" gradientUnits="objectBoundingBox">
      <stop offset="0" stop-color="#ff3a44"/>
      <stop offset="1" stop-color="#c31162"/>
    </linearGradient>
    <linearGradient id="linear-gradient-4" x1="-0.188" y1="13.583" x2="0.421" y2="12.793" gradientUnits="objectBoundingBox">
      <stop offset="0" stop-color="#32a071"/>
      <stop offset="0.068" stop-color="#2da771"/>
      <stop offset="0.476" stop-color="#15cf74"/>
      <stop offset="0.801" stop-color="#06e775"/>
      <stop offset="1" stop-color="#00f076"/>
    </linearGradient>
  </defs>
  <g id="Group_661" data-name="Group 661" transform="translate(-974 -5936)">
    <g id="Group_660" data-name="Group 660">
      <rect id="Rectangle_1442" data-name="Rectangle 1442" width="192" height="57" rx="5" transform="translate(974 5936)" fill="#fff"/>
      <g id="Group_655" data-name="Group 655" transform="translate(1032.938 5945.734)">
        <path id="Path_2006" data-name="Path 2006" d="M59.968,21.663a3.847,3.847,0,0,1-1.058,2.845,4.13,4.13,0,0,1-3.13,1.261,4.39,4.39,0,0,1-4.427-4.451,4.39,4.39,0,0,1,4.427-4.451,4.412,4.412,0,0,1,1.75.357,3.506,3.506,0,0,1,1.332.953l-.749.749a2.882,2.882,0,0,0-2.334-1.01,3.3,3.3,0,0,0-3.309,3.4,3.352,3.352,0,0,0,5.69,2.453,2.687,2.687,0,0,0,.714-1.727H55.779V21.021h4.13A3.632,3.632,0,0,1,59.968,21.663Z" transform="translate(-51.352 -16.866)"/>
        <path id="Path_2007" data-name="Path 2007" d="M63.5,18.047H59.619v2.7h3.5v1.023h-3.5v2.7H63.5v1.047H58.525V17H63.5Z" transform="translate(-48.337 -16.81)"/>
        <path id="Path_2008" data-name="Path 2008" d="M66.308,25.522h-1.1V18.047H62.832V17h5.856v1.047H66.308Z" transform="translate(-46.526 -16.81)"/>
        <path id="Path_2009" data-name="Path 2009" d="M69.938,25.522V17h1.094v8.522Z" transform="translate(-43.539 -16.81)"/>
        <path id="Path_2010" data-name="Path 2010" d="M75.157,25.522h-1.1V18.047H71.681V17h5.856v1.047H75.157Z" transform="translate(-42.807 -16.81)"/>
        <path id="Path_2011" data-name="Path 2011" d="M85.83,24.478a4.425,4.425,0,0,1-6.248,0,4.6,4.6,0,0,1,0-6.321,4.411,4.411,0,0,1,6.242.006,4.59,4.59,0,0,1,.006,6.315Zm-5.44-.714a3.278,3.278,0,0,0,4.63,0,3.335,3.335,0,0,0,.947-2.446,3.335,3.335,0,0,0-.947-2.446,3.278,3.278,0,0,0-4.63,0,3.34,3.34,0,0,0-.946,2.446A3.34,3.34,0,0,0,80.39,23.763Z" transform="translate(-40.013 -16.866)"/>
        <path id="Path_2012" data-name="Path 2012" d="M85.575,25.522V17h1.334l4.142,6.629H91.1l-.047-1.642V17h1.1v8.522H91L86.67,18.571h-.047l.047,1.643v5.308Z" transform="translate(-36.966 -16.81)"/>
      </g>
      <path id="Path_2013" data-name="Path 2013" d="M89.525,33.73a6.041,6.041,0,1,0,6.063,6.041A5.954,5.954,0,0,0,89.525,33.73Zm0,9.7a3.67,3.67,0,1,1,3.409-3.66A3.495,3.495,0,0,1,89.525,43.431ZM76.3,33.73a6.041,6.041,0,1,0,6.063,6.041A5.954,5.954,0,0,0,76.3,33.73Zm0,9.7a3.67,3.67,0,1,1,3.409-3.66A3.495,3.495,0,0,1,76.3,43.431ZM60.561,35.583v2.562h6.132A5.348,5.348,0,0,1,65.3,41.371a6.279,6.279,0,0,1-4.737,1.876,6.819,6.819,0,0,1,0-13.637,6.533,6.533,0,0,1,4.622,1.831l1.808-1.808a8.942,8.942,0,0,0-6.43-2.586,9.383,9.383,0,1,0,0,18.764A8.573,8.573,0,0,0,67.1,43.179a8.468,8.468,0,0,0,2.22-6,8.279,8.279,0,0,0-.138-1.6Zm64.353,1.99a5.615,5.615,0,0,0-5.172-3.843,5.74,5.74,0,0,0-5.7,6.041,5.911,5.911,0,0,0,6,6.041,6.008,6.008,0,0,0,5.034-2.677l-2.06-1.373a3.451,3.451,0,0,1-2.974,1.67,3.075,3.075,0,0,1-2.93-1.829l8.078-3.342Zm-8.238,2.014a3.314,3.314,0,0,1,3.157-3.524,2.337,2.337,0,0,1,2.243,1.281Zm-6.566,5.858h2.653V27.688H110.11Zm-4.349-10.366h-.091a4.187,4.187,0,0,0-3.18-1.349,6.046,6.046,0,0,0,0,12.082,4.115,4.115,0,0,0,3.18-1.373h.091v.871c0,2.311-1.234,3.547-3.226,3.547A3.343,3.343,0,0,1,99.492,46.7l-2.311.962a5.756,5.756,0,0,0,5.355,3.569c3.112,0,5.744-1.831,5.744-6.292V34.095h-2.518Zm-3.042,8.352a3.674,3.674,0,0,1,0-7.322,3.4,3.4,0,0,1,3.226,3.684A3.374,3.374,0,0,1,102.719,43.431Zm34.63-15.742H131V45.445h2.649V38.718h3.7a5.523,5.523,0,1,0,0-11.029Zm.068,8.558h-3.77V30.16h3.77a3.044,3.044,0,1,1,0,6.086ZM153.8,33.7a4.978,4.978,0,0,0-4.73,2.717l2.354.983a2.511,2.511,0,0,1,2.422-1.3,2.552,2.552,0,0,1,2.787,2.285v.182a5.863,5.863,0,0,0-2.764-.685c-2.535,0-5.118,1.393-5.118,4,0,2.376,2.079,3.907,4.409,3.907a3.74,3.74,0,0,0,3.382-1.737h.091v1.371h2.558V38.607C159.186,35.455,156.834,33.7,153.8,33.7Zm-.32,9.731c-.869,0-2.079-.433-2.079-1.507,0-1.371,1.507-1.9,2.809-1.9a4.728,4.728,0,0,1,2.422.594A3.213,3.213,0,0,1,153.476,43.428Zm15.03-9.343-3.038,7.7h-.091l-3.153-7.7h-2.855L164.1,44.844l-2.7,5.985h2.764l7.288-16.745Zm-23.872,11.36h2.65V27.689h-2.65Z" transform="translate(981.456 5933.148)"/>
      <g id="Group_657" data-name="Group 657" transform="translate(988.369 5946.125)">
        <path id="Path_2014" data-name="Path 2014" d="M20.629,17.569a2.851,2.851,0,0,0-.656,2V50.977a2.848,2.848,0,0,0,.656,2l.105.1,17.6-17.6v-.415l-17.6-17.6Z" transform="translate(-19.973 -17.004)" fill="url(#linear-gradient)"/>
        <path id="Path_2015" data-name="Path 2015" d="M38.764,37.875,32.9,32.006v-.415l5.867-5.867.132.077,6.95,3.949c1.984,1.128,1.984,2.973,0,4.1L38.9,37.8Z" transform="translate(-14.54 -13.532)" fill="url(#linear-gradient-2)"/>
        <path id="Path_2016" data-name="Path 2016" d="M44.136,36l-6-6-17.7,17.7c.655.693,1.736.778,2.953.087L44.136,36" transform="translate(-19.779 -11.735)" fill="url(#linear-gradient-3)"/>
        <path id="Path_2017" data-name="Path 2017" d="M44.136,29.407,23.388,17.618c-1.217-.692-2.3-.606-2.953.087l17.7,17.7Z" transform="translate(-19.779 -17.14)" fill="url(#linear-gradient-4)"/>
        <g id="Group_656" data-name="Group 656" transform="translate(0 24.134)">
          <path id="Path_2018" data-name="Path 2018" d="M44,34.132,23.388,45.846a2.365,2.365,0,0,1-2.846.016h0l-.107.105h0l.105.1h0a2.365,2.365,0,0,0,2.846-.016L44.136,34.264Z" transform="translate(-19.779 -34.132)" opacity="0.2" style="isolation: isolate"/>
          <path id="Path_2019" data-name="Path 2019" d="M20.629,42.909a2.848,2.848,0,0,1-.656-2v.209a2.844,2.844,0,0,0,.656,1.994l.107-.105Z" transform="translate(-19.973 -31.282)" opacity="0.12" style="isolation: isolate"/>
        </g>
        <path id="Path_2020" data-name="Path 2020" d="M44.111,31.845l-7.082,4.024.132.132,6.95-3.949A2.493,2.493,0,0,0,45.6,30h0A2.643,2.643,0,0,1,44.111,31.845Z" transform="translate(-12.803 -11.735)" opacity="0.12" style="isolation: isolate"/>
        <path id="Path_2021" data-name="Path 2021" d="M23.582,17.826l27.7,15.738a2.643,2.643,0,0,1,1.489,1.844h0a2.489,2.489,0,0,0-1.489-2.051l-27.7-15.738c-1.986-1.128-3.609-.19-3.609,2.082v.209C19.973,17.635,21.6,16.7,23.582,17.826Z" transform="translate(-19.973 -17.14)" fill="#fff" opacity="0.25" style="isolation: isolate"/>
      </g>
    </g>
    <g id="Group_659" data-name="Group 659" transform="translate(1128.5 5740.074)">
      <path id="Path_2022" data-name="Path 2022" d="M253.032,252.926H74.239a6.754,6.754,0,0,1-6.739-6.745V202.661a6.745,6.745,0,0,1,6.739-6.735H253.032a6.837,6.837,0,0,1,6.844,6.735v43.521A6.846,6.846,0,0,1,253.032,252.926Z" transform="translate(0 0)" fill="#fff"/>
      <path id="Path_2023" data-name="Path 2023" d="M126.789,239.937a8.261,8.261,0,0,1,3.934-6.931,8.461,8.461,0,0,0-6.663-3.6c-2.8-.295-5.522,1.678-6.95,1.678-1.457,0-3.655-1.649-6.025-1.6a8.872,8.872,0,0,0-7.467,4.554c-3.229,5.591-.821,13.806,2.273,18.324,1.548,2.213,3.356,4.684,5.723,4.6,2.316-.1,3.181-1.476,5.975-1.476,2.769,0,3.581,1.476,5.995,1.421,2.486-.04,4.05-2.223,5.544-4.456a18.288,18.288,0,0,0,2.535-5.163A7.986,7.986,0,0,1,126.789,239.937Z" transform="translate(-16.357 -15.819)"/>
      <path id="Path_2024" data-name="Path 2024" d="M135.419,218.562a8.129,8.129,0,0,0,1.861-5.827,8.282,8.282,0,0,0-5.355,2.77,7.738,7.738,0,0,0-1.91,5.612A6.84,6.84,0,0,0,135.419,218.562Z" transform="translate(-29.546 -7.95)"/>
      <path id="Path_2025" data-name="Path 2025" d="M198.174,264.087h-3.236l-1.772-5.57H187l-1.689,5.57h-3.151l6.1-18.964h3.771Zm-5.543-7.907-1.6-4.952q-.255-.759-.956-3.572h-.057q-.28,1.21-.9,3.572l-1.575,4.952Z" transform="translate(-54.229 -23.267)"/>
      <path id="Path_2026" data-name="Path 2026" d="M230.51,261.576a7.771,7.771,0,0,1-1.885,5.514,5.512,5.512,0,0,1-4.192,1.8,4.192,4.192,0,0,1-3.883-1.941h-.057v7.2h-3.038V259.409q0-2.193-.113-4.5h2.672l.17,2.167h.057a5.406,5.406,0,0,1,8.651-.536A7.533,7.533,0,0,1,230.51,261.576Zm-3.1.111a5.631,5.631,0,0,0-.9-3.292,3.112,3.112,0,0,0-2.645-1.351,3.158,3.158,0,0,0-2.039.745,3.456,3.456,0,0,0-1.2,1.956,3.994,3.994,0,0,0-.141.927v2.28a3.654,3.654,0,0,0,.915,2.519,3.033,3.033,0,0,0,2.377,1.027,3.109,3.109,0,0,0,2.672-1.322A5.817,5.817,0,0,0,227.415,261.687Z" transform="translate(-70.867 -27.762)"/>
      <path id="Path_2027" data-name="Path 2027" d="M260.352,261.576a7.767,7.767,0,0,1-1.887,5.514,5.508,5.508,0,0,1-4.191,1.8,4.189,4.189,0,0,1-3.882-1.941h-.057v7.2H247.3V259.409q0-2.193-.113-4.5h2.672l.17,2.167h.057a5.407,5.407,0,0,1,8.653-.536A7.557,7.557,0,0,1,260.352,261.576Zm-3.1.111a5.632,5.632,0,0,0-.9-3.292,3.108,3.108,0,0,0-2.644-1.351,3.162,3.162,0,0,0-2.04.745,3.454,3.454,0,0,0-1.194,1.956,4.052,4.052,0,0,0-.141.927v2.28a3.664,3.664,0,0,0,.912,2.519,3.038,3.038,0,0,0,2.38,1.027,3.109,3.109,0,0,0,2.672-1.322A5.817,5.817,0,0,0,257.257,261.687Z" transform="translate(-84.981 -27.762)"/>
      <path id="Path_2028" data-name="Path 2028" d="M294.974,258.519a5.054,5.054,0,0,1-1.684,3.939,7.466,7.466,0,0,1-5.166,1.66,9.041,9.041,0,0,1-4.915-1.181l.7-2.532a8.326,8.326,0,0,0,4.392,1.211,4.152,4.152,0,0,0,2.675-.775,2.531,2.531,0,0,0,.954-2.072,2.639,2.639,0,0,0-.788-1.943,7.318,7.318,0,0,0-2.616-1.467q-4.98-1.857-4.979-5.438a4.813,4.813,0,0,1,1.746-3.832,6.883,6.883,0,0,1,4.643-1.494,9.206,9.206,0,0,1,4.3.9l-.76,2.477a7.467,7.467,0,0,0-3.629-.872,3.677,3.677,0,0,0-2.5.788,2.252,2.252,0,0,0-.759,1.718,2.317,2.317,0,0,0,.871,1.856,9.827,9.827,0,0,0,2.759,1.464,9.365,9.365,0,0,1,3.6,2.306A4.817,4.817,0,0,1,294.974,258.519Z" transform="translate(-102.018 -23.018)"/>
      <path id="Path_2029" data-name="Path 2029" d="M317.117,254.381h-3.349v6.639q0,2.533,1.773,2.533a5.413,5.413,0,0,0,1.35-.141l.084,2.307a6.872,6.872,0,0,1-2.362.336,3.643,3.643,0,0,1-2.814-1.1,5.389,5.389,0,0,1-1.013-3.686v-6.893h-2V252.1h2v-2.5l2.984-.9v3.4h3.349Z" transform="translate(-114.116 -24.956)"/>
      <path id="Path_2030" data-name="Path 2030" d="M341.239,261.633a7.5,7.5,0,0,1-1.8,5.177,6.431,6.431,0,0,1-5.011,2.082,6.117,6.117,0,0,1-4.8-2,7.272,7.272,0,0,1-1.787-5.036,7.429,7.429,0,0,1,1.843-5.2,6.376,6.376,0,0,1,4.965-2.026,6.244,6.244,0,0,1,4.839,2A7.189,7.189,0,0,1,341.239,261.633Zm-3.152.1a6.152,6.152,0,0,0-.815-3.245,3,3,0,0,0-2.728-1.636,3.047,3.047,0,0,0-2.786,1.636,6.27,6.27,0,0,0-.815,3.3,6.146,6.146,0,0,0,.815,3.244,3.105,3.105,0,0,0,5.487-.028A6.177,6.177,0,0,0,338.087,261.731Z" transform="translate(-123.128 -27.763)"/>
      <path id="Path_2031" data-name="Path 2031" d="M365.429,257.579a5.3,5.3,0,0,0-.958-.084,2.87,2.87,0,0,0-2.477,1.211,4.551,4.551,0,0,0-.76,2.7v7.175H358.2l.029-9.368q0-2.364-.114-4.3h2.646l.111,2.616h.084a4.674,4.674,0,0,1,1.519-2.166,3.674,3.674,0,0,1,2.2-.733,4.921,4.921,0,0,1,.759.055Z" transform="translate(-137.443 -27.762)"/>
      <path id="Path_2032" data-name="Path 2032" d="M386.869,261.074a7.138,7.138,0,0,1-.111,1.378h-9.114a3.966,3.966,0,0,0,1.322,3.1,4.513,4.513,0,0,0,2.981.956,10.084,10.084,0,0,0,3.688-.647l.476,2.109a11.4,11.4,0,0,1-4.584.845,6.642,6.642,0,0,1-5-1.871,6.911,6.911,0,0,1-1.814-5.022,7.835,7.835,0,0,1,1.69-5.149,5.823,5.823,0,0,1,4.781-2.193,5.1,5.1,0,0,1,4.476,2.193A7.4,7.4,0,0,1,386.869,261.074Zm-2.9-.788a4.129,4.129,0,0,0-.59-2.335,2.655,2.655,0,0,0-2.421-1.266,2.882,2.882,0,0,0-2.418,1.238,4.534,4.534,0,0,0-.9,2.363h6.328Z" transform="translate(-145.296 -27.739)"/>
      <path id="Path_2033" data-name="Path 2033" d="M193.245,218.942a4.679,4.679,0,0,1-1.508,3.788,6,6,0,0,1-3.966,1.174,18.446,18.446,0,0,1-2.185-.111v-9.164a16.137,16.137,0,0,1,2.572-.194,5.547,5.547,0,0,1,3.691,1.065A4.3,4.3,0,0,1,193.245,218.942Zm-1.575.042a3.036,3.036,0,0,0-3.387-3.373,6.339,6.339,0,0,0-1.2.1v6.967a7.885,7.885,0,0,0,1.009.042,3.531,3.531,0,0,0,2.646-.953A3.817,3.817,0,0,0,191.67,218.984Z" transform="translate(-55.848 -8.754)"/>
      <path id="Path_2034" data-name="Path 2034" d="M210.054,222.68a3.686,3.686,0,0,1-.885,2.544,3.159,3.159,0,0,1-2.461,1.023,3,3,0,0,1-2.357-.982,3.576,3.576,0,0,1-.876-2.473,3.65,3.65,0,0,1,.9-2.557,3.14,3.14,0,0,1,2.44-.995,3.073,3.073,0,0,1,2.379.98A3.548,3.548,0,0,1,210.054,222.68Zm-1.549.048a3.036,3.036,0,0,0-.4-1.595,1.476,1.476,0,0,0-1.34-.8,1.5,1.5,0,0,0-1.369.8,3.081,3.081,0,0,0-.4,1.622,3.039,3.039,0,0,0,.4,1.594,1.507,1.507,0,0,0,1.355.8,1.49,1.49,0,0,0,1.34-.818A3.02,3.02,0,0,0,208.505,222.729Z" transform="translate(-64.308 -11.026)"/>
      <path id="Path_2035" data-name="Path 2035" d="M228.465,219.5l-2.1,6.718h-1.368l-.871-2.917a21.837,21.837,0,0,1-.54-2.17h-.027a15.882,15.882,0,0,1-.54,2.17l-.925,2.917h-1.384l-1.976-6.718h1.534l.76,3.194q.275,1.133.456,2.156h.027q.167-.842.554-2.141l.953-3.207h1.217l.913,3.138q.331,1.148.539,2.212h.041a21.125,21.125,0,0,1,.456-2.212L227,219.5h1.466Z" transform="translate(-71.524 -11.149)"/>
      <path id="Path_2036" data-name="Path 2036" d="M246.6,226.091H245.11v-3.848q0-1.779-1.354-1.778a1.348,1.348,0,0,0-1.079.489,1.736,1.736,0,0,0-.414,1.151v3.985h-1.494v-4.8q0-.885-.054-1.922h1.313l.07,1.05h.041a2.161,2.161,0,0,1,.774-.811,2.521,2.521,0,0,1,1.354-.377,2.145,2.145,0,0,1,1.563.608,2.957,2.957,0,0,1,.774,2.226Z" transform="translate(-81.921 -11.022)"/>
      <rect id="Rectangle_1443" data-name="Rectangle 1443" width="1.492" height="9.8" transform="translate(167.309 205.268)"/>
      <path id="Path_2037" data-name="Path 2037" d="M270.479,222.68a3.685,3.685,0,0,1-.885,2.544,3.161,3.161,0,0,1-2.461,1.023,3,3,0,0,1-2.356-.982,3.574,3.574,0,0,1-.877-2.473,3.648,3.648,0,0,1,.905-2.557,3.137,3.137,0,0,1,2.438-.995,3.075,3.075,0,0,1,2.38.98A3.548,3.548,0,0,1,270.479,222.68Zm-1.551.048a3.036,3.036,0,0,0-.4-1.595,1.473,1.473,0,0,0-1.338-.8,1.5,1.5,0,0,0-1.37.8,3.081,3.081,0,0,0-.4,1.622,3.039,3.039,0,0,0,.4,1.594,1.507,1.507,0,0,0,1.356.8,1.487,1.487,0,0,0,1.338-.818A3,3,0,0,0,268.929,222.729Z" transform="translate(-92.886 -11.026)"/>
      <path id="Path_2038" data-name="Path 2038" d="M285.148,226.094h-1.341l-.111-.774h-.042a2.3,2.3,0,0,1-1.962.926,2.025,2.025,0,0,1-1.533-.608,1.909,1.909,0,0,1-.525-1.368,2.087,2.087,0,0,1,1.03-1.879,5.349,5.349,0,0,1,2.9-.636v-.125q0-1.327-1.4-1.327a3.126,3.126,0,0,0-1.751.5l-.3-.98a4.312,4.312,0,0,1,2.3-.58q2.633,0,2.636,2.779v2.474A10.471,10.471,0,0,0,285.148,226.094Zm-1.551-2.309V222.75q-2.471-.043-2.471,1.354a1.012,1.012,0,0,0,.286.788,1.046,1.046,0,0,0,.73.262,1.508,1.508,0,0,0,.913-.31,1.272,1.272,0,0,0,.517-.8Z" transform="translate(-100.327 -11.026)"/>
      <path id="Path_2039" data-name="Path 2039" d="M300.442,223.451h-1.325l-.07-1.079h-.042a2.233,2.233,0,0,1-2.157,1.231,2.529,2.529,0,0,1-2.018-.953,3.712,3.712,0,0,1-.8-2.473,3.9,3.9,0,0,1,.871-2.641,2.676,2.676,0,0,1,2.073-.941,2.012,2.012,0,0,1,1.892.912h.028v-3.857h1.495v7.99Q300.39,222.622,300.442,223.451Zm-1.547-2.833V219.5a2.219,2.219,0,0,0-.041-.471,1.7,1.7,0,0,0-.54-.9,1.466,1.466,0,0,0-1-.366,1.532,1.532,0,0,0-1.314.664,2.845,2.845,0,0,0-.479,1.7,2.654,2.654,0,0,0,.459,1.618,1.537,1.537,0,0,0,1.306.662,1.439,1.439,0,0,0,1.18-.553A1.838,1.838,0,0,0,298.895,220.618Z" transform="translate(-107.136 -8.383)"/>
      <path id="Path_2040" data-name="Path 2040" d="M324.526,222.68a3.686,3.686,0,0,1-.885,2.544,3.158,3.158,0,0,1-2.461,1.023,3,3,0,0,1-2.356-.982,3.574,3.574,0,0,1-.877-2.473,3.648,3.648,0,0,1,.9-2.557,3.139,3.139,0,0,1,2.441-.995,3.07,3.07,0,0,1,2.377.98A3.548,3.548,0,0,1,324.526,222.68Zm-1.548.048a3.041,3.041,0,0,0-.4-1.595,1.478,1.478,0,0,0-1.341-.8,1.5,1.5,0,0,0-1.37.8,3.081,3.081,0,0,0-.4,1.622,3.039,3.039,0,0,0,.4,1.594,1.507,1.507,0,0,0,1.356.8,1.492,1.492,0,0,0,1.341-.818A3.029,3.029,0,0,0,322.978,222.729Z" transform="translate(-118.447 -11.026)"/>
      <path id="Path_2041" data-name="Path 2041" d="M340.383,226.091h-1.492v-3.848q0-1.779-1.355-1.778a1.343,1.343,0,0,0-1.077.489,1.728,1.728,0,0,0-.415,1.151v3.985h-1.495v-4.8q0-.885-.053-1.922h1.311l.07,1.05h.041a2.185,2.185,0,0,1,.774-.811,2.526,2.526,0,0,1,1.355-.377,2.143,2.143,0,0,1,1.562.608,2.952,2.952,0,0,1,.774,2.226Z" transform="translate(-126.274 -11.022)"/>
      <path id="Path_2042" data-name="Path 2042" d="M361.063,219.117h-1.644v3.263c0,.83.292,1.244.871,1.244a2.614,2.614,0,0,0,.666-.07l.038,1.133a3.354,3.354,0,0,1-1.16.167,1.787,1.787,0,0,1-1.381-.539,2.634,2.634,0,0,1-.5-1.811v-3.387h-.982V218h.982v-1.231l1.464-.442V218h1.644v1.12Z" transform="translate(-136.904 -9.648)"/>
      <path id="Path_2043" data-name="Path 2043" d="M374.5,223.451H373v-3.819q0-1.806-1.352-1.807a1.425,1.425,0,0,0-1.425,1.047,1.871,1.871,0,0,0-.07.537v4.04h-1.492v-9.8h1.492V217.7h.028a2.258,2.258,0,0,1,2.018-1.1,2.08,2.08,0,0,1,1.536.609,3.059,3.059,0,0,1,.759,2.253Z" transform="translate(-142.434 -8.383)"/>
      <path id="Path_2044" data-name="Path 2044" d="M389.849,222.406a3.589,3.589,0,0,1-.056.677h-4.478a1.956,1.956,0,0,0,.648,1.52,2.223,2.223,0,0,0,1.466.471,4.945,4.945,0,0,0,1.811-.318l.234,1.037a5.631,5.631,0,0,1-2.255.415,3.258,3.258,0,0,1-2.452-.919,3.387,3.387,0,0,1-.89-2.467,3.843,3.843,0,0,1,.829-2.529,2.856,2.856,0,0,1,2.349-1.077,2.5,2.5,0,0,1,2.2,1.077A3.584,3.584,0,0,1,389.849,222.406Zm-1.425-.386a2.01,2.01,0,0,0-.289-1.147,1.3,1.3,0,0,0-1.189-.622,1.418,1.418,0,0,0-1.189.608,2.258,2.258,0,0,0-.443,1.162Z" transform="translate(-149.628 -11.015)"/>
    </g>
  </g>
</svg>
