<svg xmlns="http://www.w3.org/2000/svg" xmlns:xlink="http://www.w3.org/1999/xlink" width="45.526" height="39.408" viewBox="0 0 45.526 39.408"><defs><style>.a{fill:#4caf50;}.b{filter:url(#a);}</style><filter id="a" x="0" y="0" width="45.526" height="39.408" filterUnits="userSpaceOnUse"><feOffset dy="3" input="SourceAlpha"/><feGaussianBlur stdDeviation="3" result="b"/><feFlood flood-opacity="0.161"/><feComposite operator="in" in2="b"/><feComposite in="SourceGraphic"/></filter></defs><g class="b" transform="matrix(1, 0, 0, 1, 0, 0)"><path class="a" d="M27.278,42.315,15.5,32.642a2.679,2.679,0,0,0-3.428,0L.3,42.315a.765.765,0,0,0-.1,1.077L.7,43.98a.765.765,0,0,0,1.077.1L3.086,43v8.9A1.534,1.534,0,0,0,4.615,53.43h6.117A1.534,1.534,0,0,0,12.261,51.9v-4.97H15.32V51.9a1.534,1.534,0,0,0,1.529,1.529h6.117A1.533,1.533,0,0,0,24.5,51.913V43l1.316,1.081a.765.765,0,0,0,1.077-.1l.489-.587a.765.765,0,0,0-.1-1.08Zm-5.084,8.821H17.614v-4.97a1.534,1.534,0,0,0-1.529-1.529H11.5a1.534,1.534,0,0,0-1.529,1.529v4.97H5.379V41.114L13.79,34.2,22.2,41.111Z" transform="translate(8.97 -26.02)"/></g></svg>