<svg xmlns="http://www.w3.org/2000/svg" width="2202.192" height="2491.189" viewBox="0 0 2202.192 2491.189"><defs><style>.a{fill:none;stroke:#4caf50;stroke-width:5px;fill-rule:evenodd;}</style></defs><g transform="translate(452.711 402.486)"><g transform="translate(-304.241)"><g transform="translate(-146 -400)"><path class="a" d="M1391.892,1000.434c.125,32.781,50.122,69.645,71.479,88.651,42.228,37.59,86.147,72.3,129.66,107.57s87.142,70.439,128.634,109.157c26.941,25.133,58.6,53.441,76.867,89.329,38.923,76.481-83.8,65.123-115.586,66.8-80.869,4.273-173.626,2.323-249.428,42.151-45.251,23.776-63.295,63.651-53.576,121.767,3.133,18.9,12.405,40.649,4.55,59.062-8.388,19.665-27.685,31.013-43.7,38.623-58.416,27.724-125.579,30.936-187.386,34.416-66.647,3.824-133.92,2.705-200.1,3-28.061.124-57.366,12.428-84.088,22.428-35.031,13.107-69.646,27.829-104.387,42.064-76.428,31.242-155.183,64.148-236.044,72.083-50.639,4.971-105.985-1.75-145.323-44.99-19.751-21.711-30.089-53.986-41.507-82.656-13.823-34.636-27.1-69.607-41.813-103.7-47.4-109.8-115.085-217.09-224.939-222.482-16.619-.813-32.94,1.836-49.48,2.333-10.534.306-19.908-2.8-23.824-16.252-9.844-33.737,21.1-87,33.785-113.765,27.779-58.594,59.1-114.558,88.45-171.976,19.414-37.973,53.02-89.865,53.372-136,.313-41.108-44.483-70.821-68.871-91.069-22.853-18.958-64.258-45.487-66.764-84.052-1.214-18.7,8.889-34.2,19.438-46.223,18.49-21.032,39.792-35.869,56.427-59.865,27.277-39.368,50.067-93.536,46.363-146.585-2.569-36.759-19.751-60.831-41.609-83.842-9.186-9.675-16.642-16.52-17.128-32.227-.783-24.942,7.221-51.338,13.815-74.464,23.589-82.762,57.092-162.789,94.363-237.511,18.624-37.342,38.743-74.569,63.436-106.423C293.151,24.866,314.962-.029,339.632,0c28.562,0,58.784,12.581,86.547,21.988,51.853,17.581,103.079,37.906,154.1,58.756Q757.275,153.1,930.94,237.186c81.55,39.55,164.831,79.157,241.5,131.738a277.413,277.413,0,0,1,42.15,35.955c13.979,14.273,31.326,20.659,48.916,25.42,109.172,29.55,228.776,6.864,338.4-7.361,27.826-3.6,55.651-7.227,83.555-9.751,23.988-2.17,52.707-8.394,76.021.956,45.94,18.4,5.78,86.232-11.2,113.87-59.779,97.312-136.9,179.644-208.391,263.7-33.989,40.028-68.237,79.951-100.377,122.245C1424.784,935.942,1391.782,971.7,1391.892,1000.434Z" transform="translate(2197.241 1898.936) rotate(180)"/><path class="a" d="M1310.934,946.763c18.323,34.688,50.47,60.326,77.155,84.455,38.4,34.735,78.009,67.541,117.021,101.292,36.889,31.917,73.856,64.2,108.017,100.442,20.831,22.1,46.967,48.534,56.833,81.225,21.4,70.857-93.738,60.106-122.162,61.96-70.666,4.587-150.783,5.638-216.159,42.944-40.823,23.3-57.594,61.931-48.887,115.568,3.009,18.557,8.433,34.4,1.567,52.863-7.939,21.367-26.2,34.688-42.939,44.091-52.437,29.461-114.42,35.72-171.261,40.928-58.722,5.38-119.906,9.174-176.739,5.237-22.727-1.567-48.887,7.329-71.379,14.152-34.608,10.511-68.863,22.638-103.3,33.914-69.984,22.934-141.786,45.027-214.592,47.54-52.562,1.816-107.366-8.027-151.1-46.069-44.318-38.577-63.981-98.378-88.558-155.225C222.013,1473.8,164.685,1354.3,66.488,1333.537c-14.89-3.153-29.2-1.443-44.075-2.217-7.649-.392-16.356-1.634-20.235-10.836-10.07-23.89,17.523-67.57,26.81-85.869,25.658-50.57,54.506-98.664,81.395-148.259,21.356-39.38,48.424-83.136,56.685-129.816,10.023-56.647-55.47-96.954-78.5-136.84-39.929-69.165,35.721-108.574,73.017-141.551,42.829-37.86,78.181-106.93,39.788-165.507-14.686-22.4-32.758-35.748-39.318-64.98-10.259-45.715-2.5-97.957,5.823-143.147,12.539-67.933,32.382-135.129,59.357-196.526C246.558,64.032,278.619-4.895,325.57.275c31.607,3.45,63.738,16.054,94.514,27.2,46.081,16.675,91.583,35.682,136.841,55.424,104.474,45.448,207.8,95.559,309.089,150.677,69.114,37.621,261.9,191.366,276.409,196.851,43.252,16.341,92.429,13.464,137.021,10.932,59.318-3.364,118.338-12.079,177.311-20.153,28.072-3.822,56.285-8.5,84.506-10.378,20.086-1.338,46.465-2.484,64.059,11.763,34.342,27.8-3.919,91.4-19.741,118.311-48.472,82.5-109.788,153.935-167.28,226.98-28.213,35.863-56.857,71.669-82.468,110.408C1325.5,893.929,1299.61,925.339,1310.934,946.763Z" transform="translate(2136.884 1839.74) rotate(180)"/><path class="a" d="M1229.871,863.571c50.039,69.414,119.1,121.04,178.711,179.012,29.917,29.106,60.022,59,85.826,93.674,13.423,18.027,30.183,40.825,32.769,65.954,6.911,67.225-96.866,58.135-127.927,60.687-60.054,4.951-127.9,8.708-182.378,43.013-33.286,20.971-49.679,55.392-43.457,100.632,2.758,20.073,7.052,37.125,0,56.835-7.146,19.968-22.034,34.057-37.11,44.619-43.324,30.377-97.164,40.089-145.942,47.324a967.311,967.311,0,0,1-172.49,9.845c-50.463-1.615-100.682,16.555-149.954,28.532-65.272,15.858-131.728,29.708-198.52,27.615-52.751-1.663-105.917-14.73-151.012-49.456-45.824-35.367-73.374-88.3-98.214-145.424-37.549-86.352-84.345-202.067-166.722-234.863-11.981-4.779-23.147-5.305-35.5-6.137-6-.4-13.752-.526-16.729-8.163-7.162-18.391,19.315-54.044,26.7-66.47,23.586-39.668,49.154-77.548,73.327-116.69,22.567-36.542,47.148-74.623,61.166-117.446C184.723,808.466,113.4,768.588,115.4,703.6c1.246-40.347,32.91-69.28,57.985-89.3,30.873-24.613,75.326-40.8,90.778-85.711,11.511-33.455-6.551-52.926-20.459-78.313-23.57-43.013-25.176-101.32-22.724-151.111,3.307-67.283,16.228-135.559,38.223-197.4,9.967-28.035,22.175-57.2,40.151-78.973C316.193,2.385,332.131-2.843,354.635,1.334c68.892,12.808,138.451,48.51,204.514,80.4,83,40.069,164.865,84.306,244.281,134.078,54.153,33.942,109.529,69.854,157.061,116.748,12.388,12.225,25.075,25.512,34.133,41.637,6.849,12.12,9.756,22.128,21.3,29.048,34.211,20.5,81.8,15.141,118.454,13.009,58.612-3.393,116.942-12.426,175.193-20.56,33.992-4.779,98.026-19.815,125.169,16.25,23.429,31.142-4.843,84.239-19.284,111.672-36.531,69.376-83.522,130.264-127.12,192.958-19.981,28.733-40.746,57.686-57.249,89.63-4.216,8.144-10.97,18.935-12.13,28.829C1217.655,846.366,1223.727,855.016,1229.871,863.571Z" transform="translate(2081.169 1738.757) rotate(180)"/><path class="a" d="M1148.962,763.84c46.238,61.375,101.943,111.8,151.583,169.23,22.257,25.751,44.733,52.766,61.693,84.18,9.122,16.893,18.809,38.158,16.293,59.155-7.218,60.265-92.57,54.822-127.053,58.352-51.238,5.185-110.1,10.408-155.407,42.9-29.679,21.284-40.807,52.718-35.266,93.258,5.948,43.487-7.351,75.054-37.617,99.313-37.947,30.391-85.846,42.779-129.906,51.579a735.058,735.058,0,0,1-160.611,13.976c-52.3-1.224-102.962,9.47-154.913,16.425-68.879,9.212-139.968,13.756-208.072-5.127-59.294-16.444-112.852-52.679-153-108.716-41.936-58.486-62.7-132.172-96.747-196.876-21.238-40.358-50.854-93.746-90.541-109.434-13.237-5.233-37.359,1.827-26.787-23.915,6.042-14.722,17.351-27.636,26.285-39.67,14.436-19.448,29.349-38.359,44.028-57.539,31.285-40.885,64.788-82.64,88.237-131.053,29.545-60.954-14.373-107.865-9.02-169.67,2.876-33.261,21.826-59.806,41.873-80.66,12.97-13.507,27.163-25.206,41.654-36.121C250.8,482.029,268.7,473.343,281.9,458.6c18.809-20.978,10.643-45.811,7.116-72.93a714.44,714.44,0,0,1-4.06-144.139c4.295-58.916,14.365-119.516,35.58-173.057,8.252-20.844,18.707-42.941,34.232-56.917s31.583-13.019,49.373-8.81c52.766,12.436,105.423,41.372,155.478,68.8,62.649,34.332,124.067,72.7,182.719,116.35,40.486,30.133,81.1,62.685,114.976,103.541,9.851,11.89,19.224,24.623,26.8,38.838,5.2,9.748,7.994,22.327,15.533,29.654,23.589,22.872,70.948,16.042,98.613,14.712,55.212-2.65,109.553-15.248,164.694-18.309,30.094-1.674,77.226-5.883,99.326,25.388,20.784,29.4,1.959,75.695-10.462,104.02-24.412,55.693-57.21,105.311-86.606,157.082-12.085,21.3-25.329,43.592-33.158,67.918C1125.1,732.416,1137.112,748.1,1148.962,763.84Z" transform="translate(2004.562 1655.185) rotate(180)"/><path class="a" d="M1070.267,657.211c36.8,54.008,81.173,101.95,118.243,156.837,21.7,32.143,59.067,86.18,42.286,131.5-18.41,49.8-82.582,51.152-119.676,55.164-44.149,4.776-96,11.3-133.779,42.393-11.95,9.829-22.13,22.839-26.444,39.976-4.62,18.34.431,34.388,1.088,52.747,1.378,38.514-17.462,69.435-42.4,90.669-35.238,30.022-79.3,44.217-120.921,54.113a607.785,607.785,0,0,1-143.121,16.43c-45.9-.191-91.321,1.051-137.271,2.484-60.093,1.91-121.031-1.175-179.322-20.652-57.422-19.2-109.629-55.183-150.638-108.112-40.007-51.649-67-114.779-90.64-179.084C74.262,955.172,51.6,900.629,19.6,882.193c-14.228-8.205-28.19-7.642-13.062-28.981,19.052-26.87,44.729-48.429,66.8-71.412,31.832-33.165,64.462-66.98,91.18-106.411,17.063-25.18,24.667-49.614,23.492-82.216-.908-24.836-5.027-49.413-2.944-74.345,4.878-58.517,42.646-98.645,76.036-136.014,21.479-24.033,41.1-42.364,52.152-76.551,13.077-40.406,18.567-84.365,27.306-126.318,9.6-46.07,20.689-93.993,41.643-134.571C400.855,9.248,423.541-6.953,457.494,2.781,510.453,17.95,562.652,55.318,609.668,89.887c47.853,35.171,94.884,74.717,134.539,123.061,21.409,26.106,36.021,56.759,55.034,84.8,23.915,35.209,78.017,21.874,110.17,18.894,53.374-4.948,221.318-41.972,205.821,77.946-6.468,50.053-31.941,96.248-50.57,140.417-7.721,18.331-18.9,40.329-20.642,61.335C1042.116,619.222,1059.2,640.953,1070.267,657.211Z" transform="translate(1937.24 1549.56) rotate(180)"/><path class="a" d="M996.281,562.089c28.125,48.942,61.784,95.18,85.917,148.04,15.656,34.234,31.029,79.974,10.834,116.2-22.794,40.876-73.056,50.4-109.987,55.613-38.051,5.362-83.475,9.873-114.574,40.866-9.894,9.873-18.051,23.186-19.569,39.127-1.464,15.291,2.669,30.583,1.3,46.151-3.068,34.96-20.438,63.766-42.833,84.657-66.246,61.806-164.844,75.549-244.772,77.165-40.007.8-81.181-3.412-121.447-6.432-52.25-3.918-104.578-12.329-154.409-32.6C180.792,1087.79,109.779,992.237,60.182,873.337c-15.608-37.426-27.554-77.92-52.015-108-12.61-15.53-9.855-26.684,3.037-40.847,20.156-22.134,44.743-39.051,67.115-57.525,31.82-26.273,64.32-52.937,92.461-84.409,19.4-21.695,33.166-42.6,37.346-75.129,2.982-23.2,2.286-46.83,4.078-70.169,3.413-44.336,15.1-88.337,35.788-125.113C264.431,283,284,256.508,304.227,231.248c26.293-32.886,48.532-66.3,68.5-105.329C399.2,74.253,436.4-21.051,498.753,4.17,567.527,32,631.988,102.714,676.113,171.229c14.818,23,26.982,51.217,46.966,68.181,29.917,25.355,60.273,24.466,95.858,24.361,53.275-.143,169.2-14.259,170.456,83.147.493,38.592-13.19,75.081-19.741,112.2C962.262,500.693,977.072,528.734,996.281,562.089Z" transform="translate(1882.686 1459.024) rotate(180)"/><path class="a" d="M931.226,488.082c27.819,63.788,90.2,168.6,42.755,239.536C948.919,765.1,904.589,779.19,867.4,787.585c-29.926,6.79-66.016,9.34-88.627,38.125-16.62,21.164-9.242,51.964-15.609,78.457-7.9,32.844-26.042,59.719-48.332,79.918-62.288,56.453-148.895,73.778-223.824,77.464-77.819,3.82-163.564-14.049-236.794-48.421C162.912,970.257,94.507,889.078,46.669,786.276c-8.827-18.977-16.847-38.45-25.321-57.656-5.694-12.884-14.137-25.347-18.625-38.9-7.472-22.6,1.331-41.067,15.445-55.794,20.3-21.2,45.238-36.292,68.381-52.2,31.649-21.775,64-43.159,93.444-68.706,19.784-17.191,40.492-35.709,47.572-65.535,4.832-20.342,5.835-41.888,5.662-62.957-.376-45.174,1.566-81.7,18.844-123.077,28.43-67.923,72.149-129,118.334-179.816C406.653,41.749,464.006-20.2,516.818,6.46c47.384,23.876,75.1,81.026,106.32,127.232,15.178,22.463,32.229,42.977,52.263,58.955,25.258,20.142,49.036,28.594,78.962,31.889,50.368,5.549,126.315,6.991,141.885,80.721,5.749,27.209,2.467,55.393,5.483,82.955C905.67,424.657,917.191,455.906,931.226,488.082Z" transform="translate(1838.579 1389.381) rotate(180)"/><path class="a" d="M861.674,435.809c19.81,69.8,45.834,157.758-2.012,219.791-23.176,30.051-55.775,46.849-87.325,59.4-22.6,9-58.475,11.645-72.329,39.306-10.175,20.356-11.584,48.437-20.788,70.245a199.972,199.972,0,0,1-54.288,74.013C566.372,948.943,490.1,968.41,420.54,973.984,269.4,986.079,115.619,889.751,34.743,731.266,10.629,684.024-20.5,633.743,18.471,585.478c42.547-52.653,106.642-77.321,157.423-114.733,19.4-14.284,44.128-31.456,54.953-57.319,6.512-15.546,6.958-35.051,7.256-52.165.783-43.589,3.749-82.79,18.111-123.463,22.182-62.855,57.551-120.843,97.633-168.342,34.955-41.419,84.8-90.094,135.57-60.235,38.923,22.947,63.609,71.651,93.853,107.553,33.656,39.985,75.279,66.928,120.989,80.093,44.465,12.774,93.234,21.388,116.668,75.657,8.038,18.615,16.437,42.719,19.45,63.323a750.886,750.886,0,0,0,21.3,99.961Z" transform="translate(1797.954 1339.47) rotate(180)"/><path class="a" d="M792.276,362.192c9.165,70.479,10.183,143.969-32.4,199.517-19.873,25.915-44.993,44.326-70.4,61.006-18.69,12.274-37.99,22.626-51.949,42.748-12.932,18.631-22.763,40.263-35.249,59.381A273.1,273.1,0,0,1,543.922,789.8c-55.615,44.249-123.268,64.944-187.993,72.123-31.332,3.489-65.319,5.305-96.44-4.206-30.055-9.177-59.774-23.687-87.409-40.607C113.333,781.176,62.419,728.553,25.509,662.022.2,616.387-13.483,572.013,19.29,525.719c36.948-52.183,94.881-80.975,142.631-114.843,32.75-23.229,69.455-46,75.573-95.361,4.872-39.278,8.828-76.559,21.431-113.686,18.757-54.764,46.337-104.372,81.1-145.881,31.794-37.816,72.017-69.906,117.5-49.707,36.032,16.031,63.988,51.944,95.469,77.62,35.084,28.677,73.63,44.488,114.221,57.2,36.478,11.471,70.826,29.1,94.4,66.522,4.825,7.647,9.893,15.973,13.614,24.529,4.747,10.917,4.379,21.737,5.311,33.973C782.971,298.375,788.133,330.293,792.276,362.192Z" transform="translate(1760.811 1266.344) rotate(180)"/><path class="a" d="M720.73,279.738c-.783,66.945-13.975,130.213-50.108,182.384-15.448,22.318-33.893,40.7-50.891,61.152-13.686,16.487-26.62,31.806-42.357,45.393-37.33,32.17-67.669,73.8-107.341,102.447-52.958,38.3-113.62,59.467-173.812,67.931-29.391,4.136-59.754,5.582-89.49.91-25.539-4.012-50-18.1-72.688-32.505-44.471-28.226-87.65-68.343-116.525-119.1C-46.141,476.455,79.371,395.1,143.791,347.458c29.626-21.916,74.9-47.3,87.031-90.709,8.675-31.012,13.96-62.55,25.132-92.6C285.965,83.432,346.885-11.5,428.068,1.14c34.739,5.4,66.4,27.335,98.83,42.061,33.392,15.166,67.857,23.62,102.565,32.9,32.437,8.665,58.29,21,79.241,54.057,10.014,15.788,9.129,34.688,10.022,54.057C720.182,216.029,721.082,248.027,720.73,279.738Z" transform="translate(1724.828 1178.13) rotate(180)"/><path class="a" d="M650.043,205.9C637,306.948,588.561,417.263,517.336,475.946,433.555,544.976,342.79,603.1,242.69,619.816c-46.409,7.749-97.247,11.561-141.038-13.777-33.328-19.271-72.04-48.078-90.381-88.588-44.873-99.088,54.937-177.969,111.8-223.811,30.616-24.679,69.586-48.727,92.662-84.766,13.388-20.9,20.222-48.536,31.031-71.486C279.521,67.841,333.439,11.747,400.6,1.715c31.054-4.634,62.336,1.1,93.156,5.656,31.548,4.663,63.488,7.194,94.841,13.7,25.027,5.2,54.522,14,63.739,46.683C663.963,108.944,655.365,164.636,650.043,205.9Z" transform="translate(1686.525 1095.719) rotate(180)"/><path class="a" d="M582.3,169.9c-19.021,95-59.3,187.669-127.015,244.383-35.909,30.073-77.593,50.833-117.614,71.344-45.365,23.246-92.762,41.29-141.171,50.24-60.274,11.15-157.893,21.2-189.384-62.614-31.255-83.192,47.727-156.821,94.433-198.781,29.945-26.88,61.993-51.55,90.6-80.935,15.514-15.931,27.465-34.338,40.594-53.023,36.285-51.77,88.014-92.754,140.739-114.633,51.1-21.209,114.318-30.6,168.26-23.59,23.275,3.012,39.911,13.177,46.95,42.074C598.454,84.539,590.167,130.658,582.3,169.9Z" transform="translate(1650.542 1043.486) rotate(180)"/><path class="a" d="M508.964,152.542c-18.9,83.645-59.655,160.043-119.106,210.246C323.216,419.065,237.4,450.337,158.531,466.239c-41.924,8.446-132.776,31.348-154.145-34.2s40.406-130.133,75.961-165.69C123.5,223.265,170.026,181.661,216.5,143c40.375-33.614,83.457-67.981,127.189-93.939A416.36,416.36,0,0,1,420.46,13.133C440.021,6.391,464.9-3.664,485.4,1.354,537.133,14.029,518,112.548,508.964,152.542Z" transform="translate(1608.757 1000.54) rotate(180)"/><path class="a" d="M430.549,132.321c-41.461,158.183-172.822,235.98-299.3,263.1-29.39,6.294-111.78,28.989-128.208-19.332-15.919-46.85,34.71-102.411,58.413-128.735C134.9,165.78,225.646,105.3,311.635,45.384c26.84-18.7,75.248-59.286,108.542-40.565C456.325,25.182,439.139,99.522,430.549,132.321Z" transform="translate(1569.292 955.272) rotate(180)"/><path class="a" d="M342.812,104.731c-36.057,116.49-140.93,183.3-237.35,205.326-23.616,5.389-83.6,22.169-101.483-10.339-16.553-30.071,22.949-73.643,37.728-90.958,32.9-38.556,71.894-70.318,110.414-100.848,35.617-28.246,71.619-57.2,109.1-81.087,19.739-12.575,56.761-39.406,79.193-19.99C364.561,27.725,350.818,78.865,342.812,104.731Z" transform="translate(1524.024 897.236) rotate(180)"/><path class="a" d="M240.3,72.6C212.817,148.677,139.214,198.076,74.287,214.491c-17.47,4.407-55.23,15.842-69.968-4.474-13.568-18.71,8.3-46.139,18-58.806,43.012-56.149,106-106.3,163.711-137.106,14.51-7.744,40.594-22.945,55.521-7.314C256.866,22.842,246.611,55.138,240.3,72.6Z" transform="translate(1468.31 831.075) rotate(180)"/><path class="a" d="M127.973,36.077c-15.486,37.775-55.959,66.274-89.486,75.346-23.595,6.379-51.957.869-31.394-32.013C27.522,46.78,65.425,16.978,97.551,3.765,122.061-6.311,141.271,3.63,127.973,36.077Z" transform="translate(1405.631 762.592) rotate(180)"/><path class="a" d="M748.834,476.68c.993,74.629,33.487,152.19,17.44,228.232-13.178,62.454-79.518,67.668-119.317,95.963-31.626,22.479-49.574,62.3-66.677,100.508-15.367,34.3-29.17,69.635-45.359,103.373-10.479,21.811-28.474,64.64-51.2,65.414-21.757.745-41.707-32.631-54.344-52.36-16.478-25.717-31.086-53.133-47.087-79.26-26.965-44.071-59.318-76.692-96.364-107.565Q222.689,778.291,157.364,729.2C125.3,705.028,93.018,681.039,62.2,654.482,42.865,637.818.2,606.553,0,575.833c-.093-14.659,11.286-30.893,18.957-42.61,12.982-19.834,27.778-37.969,42.622-55.712,27.645-33.051,56.464-64.6,84.969-96.536,37-41.445,72.339-82.211,104.865-129.262,33.628-48.7,65.754-99.009,98.538-148.628,22.2-33.614,44.381-71.363,76.406-91.99,40.111-25.784,73.035,1.4,113.6,1.719,34.895.277,32.322,98.98,36.756,126.425,4.45,27.779,14.257,53.639,18.057,81.486,4.739,34.76,4.8,70.322,5.967,105.455,1.416,42.973,1.979,83.883,39.6,100.269,21.412,9.311,44.577,11.268,66.74,16.845C721.439,446.915,748.521,453.1,748.834,476.68Z" transform="translate(770.718 1464.828) rotate(180)"/><path class="a" d="M693.375,417.992c3.658,62.558,25.267,142.627,4.833,207.2-17.458,55.184-72.057,62.338-108.822,91.326-30.35,23.91-43.861,63.036-59.032,101.473-12.171,30.834-23.975,61.964-37.791,91.814-10.182,22-25.729,59.134-46.9,63.686-19.033,4.093-39.444-28.692-50.127-45.371-15.586-24.35-28.917-50.794-42.686-76.683-24.194-45.477-48.968-86.372-84.378-119.779-35.567-33.55-74.477-58.636-113.8-84.746-30.765-20.428-61.374-41.45-90.6-65.035C42.29,564.32,10.984,541.844,1.022,510.532c-7.887-24.771,32.112-65.876,43.908-80.385,24.28-29.83,50.009-57.833,75.785-85.664,31.423-33.914,63.849-63.571,91.6-102.258C261.947,173.06,303.435,86.927,367.3,35.521c38.519-31.006,81.386-38.935,124.228-34.3C508.493,3.061,512.566,32.3,514.7,49.35c3.556,28.328,4,57.144,6.736,85.588,2.561,26.626,8.247,51.922,12.829,78.032,4.637,26.454,5.937,53.558,9.352,80.193,2.115,16.536,4.206,35.779,13.456,49.073,9.571,13.763,25.361,19.53,39.162,23.91C622.155,374.294,690.79,373.845,693.375,417.992Z" transform="translate(732.414 1392.863) rotate(180)"/><path class="a" d="M613.259,342.036c6.151,57.423,14.763,128.944-10.3,181.85-20.484,43.258-64.171,52.59-95.375,80.776-25.954,23.439-35.757,60.718-48.639,95.361-10.571,28.416-21.2,56.955-34.009,84-9.717,20.507-22.239,48.311-41.532,55.465-16.5,6.113-35.13-21.271-44.275-34.9-15.571-23.229-28.265-49.257-40.874-74.94-20.625-42.026-39.6-86.918-68.959-121.1-28.524-33.172-62.408-52.753-96.926-74.769-26.439-16.868-52.714-34.385-77.626-54.5-19.128-15.435-42.833-33.726-52.8-59.41-8.62-22.15,13.51-48.368,24.567-63.995,18.258-25.789,38.523-49.448,58.505-73.2,21.565-25.626,45.45-49.266,66.318-75.523C195.221,151.886,230.28,90.709,284.365,48.377,319.393,20.955,366.528-3.955,407.935.525,437.712,3.753,435.753,84.2,438.613,109.9c4.7,42.026,13.784,86.182,28.21,124.894,12.389,33.172,41.83,43.4,68.912,50.842,16.965,4.671,34.746,7.192,51.155,14.413C605.885,308.415,610.681,317.966,613.259,342.036Z" transform="translate(674.378 1290.72) rotate(180)"/><path class="a" d="M521.86,261.005c3.663,48.548,2.839,105.958-20.886,147.954-20.791,36.785-57.81,46.47-84.138,75.447-20.548,22.607-28.619,59.469-39.669,89.366-13.505,36.555-32.43,104.071-66.5,117.827-31.693,12.788-64.837-68.9-76.311-93.265C216.192,559.777,201,517.494,178.97,481.887c-18.972-30.654-44.391-47.6-71.37-65.81C73.2,392.818,20.976,365.239,2.584,319.909c-13.709-33.777,30.87-83.992,46.093-107.395C64.6,188.068,76.589,159.09,93.02,135.506c25.929-37.216,67.943-67.18,102.632-90.046C229.376,23.216,273.171-1.4,311.428.062c25.144.958,29.928,48.357,35.293,71.51,7.686,32.915,17.905,62.41,39.857,84.8,22.344,22.789,48.681,33.528,76.366,42.925,14.211,4.79,30.422,8.526,43.136,18.2C520.127,228.023,520.449,242.345,521.86,261.005Z" transform="translate(603.574 1182.773) rotate(180)"/><path class="a" d="M428.284,192.649c-.2,41.942-8.06,86.668-31.356,119.021-19.4,26.948-49.774,35.956-68.348,63.5-14.712,21.81-22.2,52.428-32.051,77.755-12.047,31.037-29.081,85.257-59.037,96.029-29.237,10.486-55.1-49.234-66.308-72.865-16.417-34.65-29.706-71.378-46.271-105.933-12.977-27.11-28.846-44.583-49.977-62.055-24.8-20.523-59.413-43.258-72.663-77.212-9.553-24.584,13.571-63.867,21.967-85.524,5.629-14.546,10.78-29.321,13.61-45.088C40.055,88,40.273,76.64,46.66,66.1,62.741,39.579,98,36.118,121.919,27.377c31.77-11.6,65.479-24.784,98.726-27.3,20.435-1.573,30.863,21.41,42.527,37.576,13.782,19.112,33.294,32.858,50.337,47.28C336,104,360.476,115.856,385.8,128c11.421,5.481,24.836,10.857,33.685,21.753C428.722,161.049,428.355,177.511,428.284,192.649Z" transform="translate(535.091 1086.433) rotate(180)"/><path class="a" d="M348.536,160.673c-4.038,35.226-16.621,68.893-37.875,93.8-16.293,19.118-37.93,29.882-51.006,52.853-12.184,21.413-20.675,45.76-30.738,68.654-10.65,24.2-26.473,64.659-51.037,71.245-26.473,7.093-46.866-33.716-58.158-56.333-14.266-28.582-25.1-59.334-37.859-88.9A253.031,253.031,0,0,0,45.5,242.194c-15.2-18.555-35.825-36.325-43.517-61.839-6.8-22.6,5.924-49.937,8.17-72.851,2.4-24.481-1.808-50.2,11.511-71.216C49.127-7.063,118.061.976,157.47.049c38.884-.956,70.147,25.571,101.613,50.807,20.784,16.662,42.429,30.771,63.738,46.3C344.545,112.991,352.088,129.672,348.536,160.673Z" transform="translate(481.698 1029.558) rotate(180)"/><path class="a" d="M291.548,155.3c-11.941,51.032-49.236,78.155-75.9,116.721-21.815,31.572-38.172,96.955-74.911,105.6C99.029,387.44,74.058,300.808,59.557,267.38,43.466,230.307,14.807,200.151,2.89,160.905c-6.264-20.6-.885-39.819,2.451-60.408C9,77.89,11.746,54.775,24.368,36.578,49.213.768,97.737,1.016,132.683.031c36.175-1.024,68.177,23.516,97,48.009C260.251,73.977,303.779,102.966,291.548,155.3Z" transform="translate(449.198 1004.022) rotate(180)"/><path class="a" d="M243.691,145.923c-13.455,36.359-41.73,65.918-64.674,93.821-19.15,23.263-39.751,70.093-68.948,73.431-34.316,3.937-55.115-46.069-68.617-76.731-13.29-30.129-32.439-61.942-39.8-95.01C-6.02,106.987,14.416,60.594,33.9,36.219,55.641,9.037,91.2-1.006,121.719.079c31.95,1.1,61.266,23.567,85.464,46.868C233.052,71.855,259.339,103.715,243.691,145.923Z" transform="translate(421.341 980.808) rotate(180)"/><path class="a" d="M196.115,131.875c-12.853,30.241-35.131,55.823-55.673,78.641-15.853,17.617-39.245,47.572-62.116,48.305-25.16.81-46.484-24.334-56.487-50.106C11.979,183.3,1.59,151.425.114,123.538-3.092,62.809,62.166-5.219,111.168.317,157.629,5.567,221.742,71.622,196.115,131.875Z" transform="translate(392.323 959.915) rotate(180)"/><path class="a" d="M153.417,114.316c-17.731,39.4-60.8,95.573-100.672,96.907C6.978,212.748-4.511,150.24,1.454,104.94,7.514,58.707,60.281-8.214,102.355.829,143.419,9.653,174.43,67.587,153.417,114.316Z" transform="translate(366.787 939.022) rotate(180)"/><path class="a" d="M115.564,92.83c-15.012,32.99-47.047,74.2-80.458,75.444-39.811,1.476-39.06-51.3-30.032-84.146C14.461,50.024,55.8-8.225,90.663.972,124.56,9.95,129.95,61.211,115.564,92.83Z" transform="translate(347.055 911.164) rotate(180)"/><path class="a" d="M80.048,66.448c-9.909,23.54-34.709,53.292-58.285,54.244C-7.054,121.836-1.452,79.978,5.993,59.774,14.843,35.734,44.508-6.037,69.4.732,93.911,7.4,88.223,47.053,80.048,66.448Z" transform="translate(327.323 880.986) rotate(180)"/><path class="a" d="M344.814,326.734C408.6,279.505,480.7,240.52,548.7,200.9,648.065,143,748.9,86.654,853.3,43.523c55.978-23.118,128.514-56.447,188.579-38.335,21.961,6.62,41.987,26.643,61.677,39.654,27.151,17.94,54.7,34.992,82.205,52.082,55.172,34.256,110.515,68.169,164.74,104.622,26.11,17.558,51.445,39.673,78.628,54.651,15.885,8.76,34.894,4.662,51.868,4.108,39.318-1.29,78.612-3.735,117.906-5.818,48.063-2.541,96.235-5.245,144.353-4.241,21.7.458,74.854-4.242,86.8,18.57,6.428,12.285-8.722,34.438-15.744,44.688-12.895,18.838-27.715,35.813-42.34,52.617-33.822,38.861-69.741,75.868-99.805,119.276-15.447,22.315-35.685,49.579-25.6,80.043,10.178,30.77,27.809,57.412,38.566,88.077,12.386,35.288,17.521,72.009,23.37,109.427,4.329,27.656,14.413,52.158,23.894,77.655,10.475,28.181,21.326,56.6,28.6,86.319,4.807,19.631,12.566,54.948-4.251,67.376-23.894,17.673-68.7,3.363-95.937-1.844-37.642-7.184-75.01-16.335-112.551-24.216-27.253-5.732-54.6-12.017-82.307-12.686-44.665-1.079-89.479,2.656-134.026,6.133-82.487,6.439-164.383,15.17-247.148,15.17-72.511,0-240.079-102.377-279.3-120.4-78.291-35.985-158.664-70.1-232.751-117.977-20.042-12.963-50.889-30.235-61.435-56.916-6.506-16.44-3.515-25.945-18.86-36.539-20.935-14.453-47.757-20.128-70.932-26.595-37.321-10.413-74.932-19.23-112.426-28.658-75.832-19.02-151.148-40.532-226.668-61.233-22.83-6.257-50.451-7.642-72.215-18.666-14.03-7.079-12.574-15.991-1.715-26.748,19.048-18.876,45.745-29.356,68.246-40.122,32.968-15.772,66.477-29.843,100-43.714s67.221-27.311,100.76-41.211C299.64,348.916,324.9,341.474,344.814,326.734Z" transform="translate(1947.687 2486.26) rotate(180)"/><path class="a" d="M251.051,267.48c67.47-47.325,142.363-85.026,214.563-121.809,92.4-47.105,186.9-91.254,284.257-120.7C807.036,7.694,874.482-11.382,932.892,8.43,953.729,15.5,969.3,31.39,987.159,45.414c20.36,16,41.5,30.67,62.646,45.106q65.285,44.57,131.948,86.1c23.539,14.723,49.451,34.439,76.045,39.548,21.143,4.066,45.16-1.818,66.4-3.53,38.245-3.081,76.483-6.256,114.744-8.954,44.15-3.109,88.425-5.979,132.669-5.482,24.659.277,66.992-4.3,84.431,15.144,15.215,16.971-40.18,78.349-49.921,90.011-30.422,36.41-62.419,71.079-90.735,110.014-16.734,22.959-37.11,50.884-44.166,81.315-6.006,25.935,5.583,55.485,12.427,79.459,8.559,30.029,15.466,61.158,25.411,90.556,8.857,26.193,22.952,49.525,35.333,73.336,13.618,26.193,27.408,52.816,37.517,81.391,6.194,17.583,16.445,47.029,4.135,63.789-14.221,19.324-58.057,6.7-76.076,3.941-36.554-5.663-72.826-14.082-109.13-21.62-60.3-12.513-117.782-23.457-179.184-20.836-79.96,3.425-159.842,11.48-239.786,15.938-29.522,1.665-59.514,5.013-89.059,3.2-16.938-1.043-29.835-7.357-39.686-21.6-13.453-19.439-44.44-30.2-65.99-41.356-33.6-17.382-67.627-33.55-101.557-49.927-74.486-35.97-150.406-70.639-221.047-117.16-22.349-14.713-47.94-31.12-64.471-55.428-9.225-13.556-6.9-26.614-12.529-41.021-7.455-18.951-31.965-27.5-46.617-33.7-28.277-11.977-57.713-20-86.922-27.523-66.092-17.009-132.34-28.192-199.5-36.429-15.74-1.913-77.72-8.543-45.168-40.495,35.967-35.31,87.9-52.615,130.241-72.514C177.7,308.8,215.875,292.152,251.051,267.48Z" transform="translate(1801.436 2416.617) rotate(180)"/><path class="a" d="M177.15,200.785c63.419-41.635,133.674-72.7,201.977-102.411,82.884-36.057,167.845-68.2,254.774-86.2,54.608-11.3,114.813-19.982,169.052-1.2,37.04,12.818,65.692,47.471,98.225,71.311s66.382,46.219,101.243,64.873c21.636,11.576,44.911,23.239,68.985,21.71,58.535-3.706,117-12.541,175.6-16.83,38.765-2.865,77.608-5.225,116.49-4.518,23.447.42,55.658-1.3,76.417,13.754,22.945,16.648-99.229,158.793-110.776,174.791-28.95,40.116-64.007,93.356-58.41,150.406,5.354,54.539,28.558,95.257,54.8,137.99,14.894,24.308,62.659,89.249,44.958,120.864-10.113,18.072-43.445,11.815-59.28,10.583-31.208-2.426-62.243-7.641-93.286-12.169-45.263-6.562-91.773-16.7-137.233-19.667-31.655-2.063-63.5.7-95.207.755-45.467.076-90.935-.344-136.4-.84-38.177-.42-76.675,0-114.719-4.47-23.651-2.751-41.6-8.931-58.567-26.391-14.761-15.187-37.032-24.079-55.846-33.736-31.074-15.941-62.557-30.718-93.937-45.732-65.7-31.443-132.153-62.228-195.039-101.522-28.707-17.928-76.973-43.029-83.707-86.5-2.43-15.674-4.217-22.446-16.76-31.357-17.8-12.646-39.125-18.348-59.1-23.306-46.565-11.557-94.478-9.828-140.964-21.252C11.508,345.012-13.209,334.849,8.4,311.582c25.219-27.212,61.93-42.17,92.142-58.98,15.083-8.386,30.62-16.237,44.942-26.477C156.486,218.235,165.9,208.121,177.15,200.785Z" transform="translate(1634.292 2341.17) rotate(180)"/><path class="a" d="M123.159,138.338c58.592-33.816,122.224-58.4,184.713-80.568C377.28,33.183,448.364,12.819,520.386,4.154c49.732-6,102.719-7.774,150.987,10.6,30.525,11.623,51.219,36.066,77.485,56.565,39.643,30.982,82.534,55.531,130.16,49.556q80.092-10.024,160.708-15.041c32.419-2.02,64.963-3.533,97.42-2.125,20.522.881,46.961,2.365,64.814,13.71,23.887,15.194-65.839,130.813-77.024,147.664-27.738,41.792-48.072,85.642-59.953,137.419-9.69,42.251,10.1,75.464,30.525,107.069,12.7,19.627,53.715,68.992,40.872,94.479-7.044,14.055-30.259,13.328-42.727,14.046-23.762,1.359-47.626-.058-71.388-.68-35.088-.957-72.437,5.62-107.227.325-77.1-11.719-154.008-21.867-231.588-29.9-42.766-4.423-85.79-8.445-128.172-16.975-15.215-3.064-30.932-6.309-45.349-13.241-9.275-4.452-14.331-12.035-22.158-18.258-37.318-29.623-86.032-44.865-128.062-63.851-55.876-25.238-112.049-50.083-166.437-79.9-28.607-15.683-68.563-33.7-88.247-65.708-5.948-9.67-3.413-17.406-7.154-26.7-4.3-10.723-17.383-13.921-25.829-16.908-19.168-6.788-99.4-17.052-62.427-56.871,17.642-18.967,40.12-31.135,60.008-46.043,7.2-5.4,14.221-10.828,20.224-18.115C99.89,153.053,109.783,146.083,123.159,138.338Z" transform="translate(1460.185 2265.724) rotate(180)"/><path class="a" d="M117.662,85.656C233.329,30.946,368.886-6.327,494.993.894,536.929,3.3,582.049,11.348,618.4,38.875c21.435,16.26,38.564,34.615,64.312,40.487,18.588,4.237,38.6-.574,57.3-2.315,27.082-2.525,54.179-4.782,81.3-6.609,33.623-2.229,67.355-3.95,101.04-3.032,24.07.66,57.308-.086,78.218,15.7,24.964,18.823-38.579,107.125-47.52,122.859C931.381,244.1,916.189,281.045,910.7,327c-1.615,13.391-7.058,27.116-6.353,40.612.737,13.783,7.694,26.054,14.117,36.891,8.4,14.2,37.544,47.89,29.2,65.212-4.612,9.565-21.921,10.77-30.893,12.8-16.831,3.826-33.9,5.882-50.838,8.924-28.729,5.184-57.253,22.066-86.084,21.588C702.32,511.765,623.671,482.421,547.7,466.3c-45.167-9.613-90.641-18.336-135.259-31.353-14.117-4.122-28.658-8.388-42.077-15.38C361,414.693,354.981,406,346.306,400.537c-33.262-20.975-71.512-33.706-107.228-47.824-46.367-18.364-92.892-36.174-138.937-55.724C71.279,284.737,34.166,273.957,9.3,251.232c-18.164-16.595-5.749-21.559,3.835-37.016,4.894-7.881,3.765-15.648,5.89-24.572,3.035-12.74,11.615-21.913,19.662-30.158,11.1-11.391,25.882-20.775,34.956-34.739,3.2-4.916,3.051-11.019,5.639-15.3C86.808,96.962,106.784,90.8,117.662,85.656Z" transform="translate(1326.702 2198.402) rotate(180)"/><path class="a" d="M166.354,47.112C260.231,12.716,364.685-6.87,463.917,2.219,498.443,5.387,533.18,12.744,565.341,28.9c14.632,7.329,25.616,15.5,41.65,15.94,37.2,1.014,74.524-2.535,111.719-3.387,26.618-.612,53.37-.833,79.926,1.78,17.756,1.741,41.767,3.827,56.314,17.117,21.138,19.356-17.02,85.155-24.787,103.334-12.871,30.149-25.64,63.665-20.535,98.55,1.566,10.668,4.337,20.093,4.7,30.971.344,9.348-.619,17.978,2.1,26.915,3.359,11.08,18.3,28.273,13.16,38.473-3.5,6.965-13.881,7.291-20.786,9.52A186.107,186.107,0,0,0,776.1,382.3c-11.117,6.162-20.582,15.682-32.1,20.772-18.7,8.248-39.622,9.022-59.273,8.986-78.407-.154-157.808-19.032-234.227-38.771-39.795-10.276-79.808-21.231-118.483-36.818-11.743-4.736-25.053-9.491-35.379-18.237-6.443-5.444-10.812-12.266-18.132-16.361-62.53-34.961-134.822-47.945-201.2-73.2C60.029,222.1-35.727,188.891,14.339,157.651c30.415-18.983,62.553-27.613,90.307-53.581,8.455-7.894,14.092-14.428,17.4-26.475,2.176-8.018-3.061-3.952,4.251-12.333C135.163,55.188,155.417,51.121,166.354,47.112Z" transform="translate(1252.416 2140.366) rotate(180)"/><path class="a" d="M172.268,22.184C282.177-5.892,398.57-7.228,510.214,17.662c28.145,6.268,57.435,4.77,85.925,6.363,27.681,1.526,76.9-1.65,97,24.327,14.579,18.832-1.24,58.852-6.712,79.916-6.971,26.836-13.063,54.559-1.617,80.621,6.7,15.264,15.89,29.793,23.081,44.914,3.439,7.222,10.52,18.288,7.568,25.128-4.883,11.286-27.728,16.037-38.813,21.36-35.43,17.01-72.948,21.35-110.827,21.229-69.965-.222-140.291-11.9-208.921-27.735-31.575-7.288-63.59-15.063-94.043-27.732-17.232-7.165-29.942-20.988-46.4-29.182-52.984-26.406-109.909-40.516-163.8-64.661-15.6-6.993-73.867-30.27-44.513-57.716,28.419-26.569,69.871-23.411,99.42-48.405,3.344-2.862,7.482-6.287,9.421-10.914,1.146-2.767-.871-8.033,0-9.607C126.059,28.461,158.317,25.742,172.268,22.184Z" transform="translate(1160.719 2095.098) rotate(180)"/><path class="a" d="M137.851,12.882C194.237,3.444,251.863,1.1,309.2.509c31.34-.326,65.773-2.762,96.439,6.925,18.837,5.966,37.031,11.184,56.449,14.944,20.894,4.048,54.534,6.992,67.257,28.929,9.505,16.392,2.99,50.088,2.645,70.02-.369,21.86,3.3,38.07,15.949,53.714,7.951,9.851,44.424,45.609,40.21,55.92-4.011,9.822-29.425,11.328-40.414,13.879-34.731,8.1-69.925,10.915-105.253,10.474-54.714-.671-109.633-7.481-163.491-19.183-22.267-4.863-45.28-9.9-66.55-19.615-14.324-6.551-26.27-18.167-40.5-24.939C131.187,172.153,88.1,158.965,47.2,139.186,34.081,132.827-8.679,115.9,1.571,89.808c8.547-21.783,37.62-28.411,51.9-43.01C77.776,21.9,106.864,18.061,137.851,12.882Z" transform="translate(1055.094 2067.241) rotate(180)"/><path class="a" d="M86.319,9.15C131.048,2.9,176.816.169,222.2.036c29.29-.086,60.191-.573,88.934,7.462,14.438,4.032,26.984,13.462,40.649,20.188,14.071,6.917,33.488,14.637,39.57,30.5,5.714,14.9,3.58,36.65,8.6,54.621,4.463,15.946,13.8,25.8,23.865,36.573,6.41,6.889,39.328,36.707,35.521,43.29-4.081,7.051-23.85,6.478-34.137,7.452A650.681,650.681,0,0,1,340,202.728c-38.788-1.452-77.873-5.5-115.989-14.675-27.039-6.5-47.434-21.975-72.644-33.325-32.66-14.742-66.492-26.4-98.839-42.526C36.407,104.167,12.549,93.829,4.294,73.087c-3.174-7.949-6.254-28.166-2.72-36.115,4.245-9.554,20.043-13.605,27.5-16.061C47.757,14.787,67.308,11.806,86.319,9.15Z" transform="translate(968.04 2050.991) rotate(180)"/></g></g></g></svg>