<svg xmlns="http://www.w3.org/2000/svg" width="174.102" height="185.735" viewBox="0 0 174.102 185.735">
  <g id="Group_562" data-name="Group 562" transform="translate(-81 -249)">
    <path id="Path_1320" data-name="Path 1320" d="M618.076,546.366l-57.608.191c-15.283-4.592-27.8-20.542-27.884-44.457a67.729,67.729,0,0,1,.814-10.76l46.4-10.424,35.8-8.041a71.2,71.2,0,0,1,7.353,7.645l-34.228,18.074-16.147,8.527,18.144-6.26,37.66-12.992a91.332,91.332,0,0,1,6.262,11.227l-11.363,11.743,12.854-8.415.164.387C644.439,522.15,634.332,546.312,618.076,546.366Z" transform="translate(-384.07 -130.568)" fill="#f2f2f2"/>
    <path id="Path_1321" data-name="Path 1321" d="M611.788,425.2c-8.712,2.5-19.422,5.663-30.434,8.949-15.922,4.752-32.474,9.767-44.524,13.433l.008-.043a16.563,16.563,0,0,1,3.056-7.094c8.926-11.606,20.293-19.714,32.943-22.725h0a47.477,47.477,0,0,1,10.858-1.3A50.086,50.086,0,0,1,611.788,425.2Z" transform="translate(-385.729 -83.453)" fill="#f2f2f2"/>
    <ellipse id="Ellipse_403" data-name="Ellipse 403" cx="57.303" cy="4.273" rx="57.303" ry="4.273" transform="translate(111.565 412.683)" fill="#3f3d56"/>
    <path id="Path_1322" data-name="Path 1322" d="M325.3,279.2c0,30.873-18.353,41.652-40.993,41.652s-40.994-10.78-40.994-41.652,40.994-70.148,40.994-70.148S325.3,248.325,325.3,279.2Z" transform="translate(-162.316 72.846)" fill="#f2f2f2"/>
    <path id="Path_1323" data-name="Path 1323" d="M108.086,256.765l.42-25.838,17.472-31.965-17.407,27.912.189-11.618L120.8,192.13,108.81,212.182h0l.34-20.9,12.895-18.411L109.2,188l.212-38.314-1.333,50.721.11-2.093-13.11-20.067,12.9,24.084-1.221,23.336-.036-.62L91.61,203.931l15.068,23.306-.153,2.918-.027.044.013.24-3.1,59.206h4.141l.5-30.581,15.031-23.249Z" transform="translate(12.414 126.312)" fill="#3f3d56"/>
    <path id="Path_1324" data-name="Path 1324" d="M523.589,66.245V219.41a7.115,7.115,0,0,1-7.321,6.878H450.131a7.552,7.552,0,0,1-5.179-2.011,6.669,6.669,0,0,1-2.142-4.868V66.245a7.112,7.112,0,0,1,7.322-6.883h9.9v1.193a5.857,5.857,0,0,0,6.028,5.669h33.637a6.236,6.236,0,0,0,3.574-1.106,5.646,5.646,0,0,0,2.453-4.563V59.362h10.548a7.11,7.11,0,0,1,7.321,6.883Z" transform="translate(-314.311 189.638)" fill="#395d45"/>
    <path id="Path_1325" data-name="Path 1325" d="M555.579,282.4c0,4.546-2.7,6.135-6.033,6.136l-.231,0q-.232,0-.459-.021c-3.009-.212-5.348-1.879-5.35-6.107,0-4.376,5.587-9.9,6.007-10.309h0l.024-.023S555.577,277.856,555.579,282.4Z" transform="translate(-389.4 27.229)" fill="#4caf50"/>
    <path id="Path_1326" data-name="Path 1326" d="M559.422,287.843l2.206-3.086-2.212,3.424-.006.354q-.232,0-.459-.021l.236-4.548,0-.035,0-.007.022-.43-2.221-3.431,2.227,3.109.006.091.178-3.436-1.9-3.545,1.924,2.942.184-7.125v0l-.028,5.619,1.89-2.228-1.9,2.712-.049,3.077,1.765-2.954-1.771,3.406-.027,1.711,2.561-4.112-2.571,4.708Z" transform="translate(-399.503 27.229)" fill="#3f3d56"/>
    <path id="Path_1327" data-name="Path 1327" d="M303.5,484.7H246.2v18.923l4.8-4.8h52.5Z" transform="translate(-105.953 -121.174)" fill="#4caf50"/>
    <rect id="Rectangle_1313" data-name="Rectangle 1313" width="32.237" height="2.614" transform="translate(153.027 367.382)" fill="#fff"/>
    <rect id="Rectangle_1314" data-name="Rectangle 1314" width="32.237" height="2.614" transform="translate(153.027 371.088)" fill="#fff"/>
    <path id="Path_1328" data-name="Path 1328" d="M246.2,382.2h57.3v18.923l-4.8-4.8H246.2Z" transform="translate(-105.953 -42.894)" fill="#4caf50"/>
    <rect id="Rectangle_1315" data-name="Rectangle 1315" width="32.237" height="2.614" transform="translate(150.118 343.271)" fill="#fff"/>
    <rect id="Rectangle_1316" data-name="Rectangle 1316" width="32.237" height="2.614" transform="translate(150.118 346.977)" fill="#fff"/>
    <path id="Path_1329" data-name="Path 1329" d="M480.515,205.808V251.95h61.826V205.808Zm7.967.581a1,1,0,1,1-1,1,1,1,0,0,1,1-1Zm-5.975,1.992a1,1,0,1,1,1-1,1,1,0,0,1-1,1Zm1.992-1a1,1,0,1,1,1,1A1,1,0,0,1,484.5,207.385ZM518.772,239H485.494V214.273h33.278Z" transform="translate(-342.533 77.395)" fill="#f2f2f2"/>
    <rect id="Rectangle_1317" data-name="Rectangle 1317" width="1.992" height="0.249" transform="translate(195.665 286.635)" fill="#fff"/>
    <rect id="Rectangle_1318" data-name="Rectangle 1318" width="1.992" height="0.249" transform="translate(195.665 287.383)" fill="#fff"/>
    <rect id="Rectangle_1319" data-name="Rectangle 1319" width="1.992" height="0.249" transform="translate(195.665 286.01)" fill="#fff"/>
    <rect id="Rectangle_1320" data-name="Rectangle 1320" width="15.021" height="0.747" transform="translate(180.845 291.42)" fill="#fff"/>
    <rect id="Rectangle_1321" data-name="Rectangle 1321" width="15.021" height="0.747" transform="translate(180.845 293.853)" fill="#fff"/>
    <rect id="Rectangle_1322" data-name="Rectangle 1322" width="15.021" height="0.747" transform="translate(180.845 296.286)" fill="#fff"/>
    <rect id="Rectangle_1323" data-name="Rectangle 1323" width="15.021" height="0.747" transform="translate(180.845 298.719)" fill="#fff"/>
    <rect id="Rectangle_1324" data-name="Rectangle 1324" width="15.021" height="0.747" transform="translate(180.845 301.152)" fill="#fff"/>
    <rect id="Rectangle_1325" data-name="Rectangle 1325" width="15.021" height="0.747" transform="translate(180.845 303.585)" fill="#fff"/>
    <rect id="Rectangle_1326" data-name="Rectangle 1326" width="15.021" height="0.747" transform="translate(180.845 306.018)" fill="#fff"/>
    <rect id="Rectangle_1327" data-name="Rectangle 1327" width="15.021" height="0.747" transform="translate(180.845 308.451)" fill="#fff"/>
    <rect id="Rectangle_1328" data-name="Rectangle 1328" width="15.021" height="0.747" transform="translate(180.845 310.884)" fill="#fff"/>
    <rect id="Rectangle_1329" data-name="Rectangle 1329" width="15.021" height="0.747" transform="translate(180.845 313.317)" fill="#fff"/>
    <circle id="Ellipse_404" data-name="Ellipse 404" cx="0.996" cy="0.996" r="0.996" transform="translate(144.671 315.882)" fill="#fff"/>
    <circle id="Ellipse_405" data-name="Ellipse 405" cx="0.996" cy="0.996" r="0.996" transform="translate(147.974 315.882)" fill="#fff"/>
    <circle id="Ellipse_406" data-name="Ellipse 406" cx="0.996" cy="0.996" r="0.996" transform="translate(151.276 315.882)" fill="#fff"/>
    <rect id="Rectangle_1330" data-name="Rectangle 1330" width="15.021" height="4.232" transform="translate(180.845 321.403)" fill="#4caf50"/>
    <path id="Path_1330" data-name="Path 1330" d="M354.871,594.882l-.551,19.272-5.873,22.576s1.285,3.854.367,4.772-5.139,2.57-5.139,2.57l3.487-48.088Z" transform="translate(-237.452 -221.913)" fill="#2f2e41"/>
    <path id="Path_1331" data-name="Path 1331" d="M335.327,778.754s-2.094,4.608.838,5.027,16.477,1.536,15.639-.838-11.031-4.608-11.031-4.608Z" transform="translate(-230.66 -359.258)" fill="#2f2e41"/>
    <path id="Path_1332" data-name="Path 1332" d="M306.431,526.79s2.2,11.93,3.671,13.949-.734,16.7-.734,16.7-3.3,21.107-1.835,24.411,1.1,2.2.918,4.038-.551,3.3,0,4.956a14.508,14.508,0,0,1,.734,2.386c.184.918,0,5.873,0,5.873s7.892,2.753,9.177-1.285c0,0-1.835-2.57-1.285-4.589a24.445,24.445,0,0,0,.918-6.24v-3.854l8.443-31.569,2.019-11.38s-.551-11.563-2.57-12.664S306.431,526.79,306.431,526.79Z" transform="translate(-209.568 -170.89)" fill="#2f2e41"/>
    <path id="Path_1333" data-name="Path 1333" d="M316.738,809.407s-2.753,6.057,1.1,6.607,21.658,2.019,20.557-1.1-14.5-6.057-14.5-6.057Z" transform="translate(-216.572 -382.109)" fill="#2f2e41"/>
    <circle id="Ellipse_407" data-name="Ellipse 407" cx="7.342" cy="7.342" r="7.342" transform="translate(96.314 296.063)" fill="#ffb9b9"/>
    <path id="Path_1334" data-name="Path 1334" d="M312.932,299.411l.137,9.376,9,.03s-2.284-7.34-1.261-8.874S312.932,299.411,312.932,299.411Z" transform="translate(-214.436 6.732)" fill="#ffb9b9"/>
    <path id="Path_1335" data-name="Path 1335" d="M312.186,341.495s-6.424-8.259-11.38-4.772-6.791,11.747-6.791,11.747l1.1,23.126s2.753,3.3,1.1,5.506-2.57,1.652-1.285,3.3,2.753,2.937,2.2,3.487.551.918.551.918l19.455.551s-.551-.734,1.1-2.937-.367-5.139,0-6.24.734.184.918-2.386S312.186,341.495,312.186,341.495Z" transform="translate(-200.274 -22.397)" fill="#3f3d56"/>
    <path id="Path_1336" data-name="Path 1336" d="M359.011,541.216s.367,4.589,3.12,5.323a2.159,2.159,0,0,0,2.371-1.013,4.507,4.507,0,0,0,.144-5.057l-.68-1.088Z" transform="translate(-248.935 -176.514)" fill="#ffb9b9"/>
    <path id="Path_1337" data-name="Path 1337" d="M290.687,319.424a32.086,32.086,0,0,0,0,4.221,1.755,1.755,0,0,1,0,1.652c-.367.551-.184,2.386.184,2.57s-.734,1.835-.367,2.937a7.96,7.96,0,0,0,.918,1.835c.184.367.479,1.025.479,1.025s5.394-11.487,9.8-8.733a31.92,31.92,0,0,0,7.892,3.671S307.205,315.754,290.687,319.424Z" transform="translate(-197.587 -8.386)" fill="#3f3d56"/>
    <path id="Path_1338" data-name="Path 1338" d="M305.185,355.216s-5.873.551-5.506,8.259-.551,19.822-.551,19.822,10.095,15.417,11.747,16.519,1.835.918,1.652,1.835-.367,1.652.367,2.386a6.338,6.338,0,0,0,1.468,1.1s5.873-2.019,5.323-3.854-3.12-4.772-3.12-4.772-4.4-7.158-4.589-8.259-.184-.918-.734-1.468-2.019-2.753-2.019-3.854v-3.487l1.539-18.636a5.4,5.4,0,0,0-1.433-4.184A4.675,4.675,0,0,0,305.185,355.216Z" transform="translate(-204.101 -37.221)" fill="#2c2c2c"/>
    <path id="Path_1339" data-name="Path 1339" d="M310.269,248.436a2.992,2.992,0,0,0,2.772-.635,2.264,2.264,0,0,0,.448-2.711,3.575,3.575,0,0,0-2.114-1.345,18.715,18.715,0,0,0-5.559-.848,4.991,4.991,0,0,0-2.606.541c-.38.23-.7.546-1.079.783a13.46,13.46,0,0,1-2.282.884,5.853,5.853,0,0,0-3.336,3.533,7.052,7.052,0,0,0-.324,1.659,9.091,9.091,0,0,0,.793,4.507c1.024,2.233,2.973,4.111,3.249,6.552,1.049-.881,1.357-2.358,2.17-3.461a4.487,4.487,0,0,1,2.45-1.663,1.426,1.426,0,0,0,.742-.332,1.23,1.23,0,0,0,.232-.669l.5-3.627a3.125,3.125,0,0,1,.807-2.029,2.871,2.871,0,0,1,1.2-.522,19.4,19.4,0,0,1,3.14-.512" transform="translate(-201.88 49.475)" fill="#2f2e41"/>
    <path id="Path_1340" data-name="Path 1340" d="M302.68,477.514l10.3,13.371S303.5,482.954,302.68,477.514Z" transform="translate(-206.76 -129.521)" opacity="0.1"/>
    <path id="Path_1341" data-name="Path 1341" d="M98.423,359.249l-.1,12.628,5.984,8.976-4.9-10.064Z" transform="translate(7.387 -25.448)" opacity="0.1"/>
    <path id="Path_1342" data-name="Path 1342" d="M780.583,748.984l-1.193-.886s-.789,4.409.092,5.07,4.184,1.762,4.184,3.083,7.487,3.083,7.707,1.1a4.367,4.367,0,0,0-.661-3.083s-3.523-3.523-3.964-4.184-1.542-1.982-1.542-1.982Z" transform="translate(-567.601 -336.621)" fill="#2f2e41"/>
    <path id="Path_1343" data-name="Path 1343" d="M797.593,526.244s-.033.194-.09.548c-.053.315-.126.76-.214,1.308-.925,5.644-3.622,22.258-3.44,22.806.22.661,1.762,3.083,0,3.743a1.366,1.366,0,0,0-.548.6,12.8,12.8,0,0,0-.931,2.2,96.559,96.559,0,0,0-2.823,11.3c-.284,1.484-.478,2.678-.535,3.3a1.794,1.794,0,0,0-.007.436c.22.881-1.321,3.964-1.982,4.844s-1.762,1.762-1.541,2.643-5.505,3.3-6.166,1.762a28.1,28.1,0,0,1-.881-2.863c-.22-.44-.44-3.523.661-3.964s.44-8.148,1.541-9.689a21.16,21.16,0,0,0,1.517-4.34c.231-.819.465-1.691.694-2.565.929-3.583,1.753-7.187,1.753-7.187l-.22-25.764,12.111-1.541.31.685.619,1.359Z" transform="translate(-567.998 -168.711)" fill="#2f2e41"/>
    <path id="Path_1344" data-name="Path 1344" d="M850.61,699.35s1.762-1.762,2.642,0,1.762,8.588,3.3,10.129,3.523,9.248,1.321,9.689-4.624-.661-4.844-1.982-4.844-8.147-4.844-8.808,3.083-3.083,3.083-3.083Z" transform="translate(-620.354 -299.538)" fill="#2f2e41"/>
    <path id="Path_1345" data-name="Path 1345" d="M750.058,483.469s2.863,25.764,3.523,28.186,4.184,11.671,5.285,13.212,8.147,14.093,9.028,14.754,2.643,2.422,2.643,2.422,3.3,3.3,3.743,3.964,4.184-1.321,4.4-2.643a13.576,13.576,0,0,0-.44-4.4c-.22-.881.44-2.2-.22-2.863s-3.964-3.964-3.964-5.505-5.725-10.57-7.927-12.552-1.762-5.285-1.762-5.285V499.323l12.111-3.743s-.661-10.57-2.2-10.57S752.48,481.487,750.058,483.469Z" transform="translate(-546.887 -138.047)" fill="#2f2e41"/>
    <circle id="Ellipse_408" data-name="Ellipse 408" cx="7.267" cy="7.267" r="7.267" transform="translate(213.741 301.479)" fill="#9f616a"/>
    <path id="Path_1346" data-name="Path 1346" d="M804.91,321.65s-.881,3.3-1.982,4.184,2.863,4.624,2.863,4.624l7.487.44,1.321-4.184s-2.422-4.844-1.762-7.927S804.91,321.65,804.91,321.65Z" transform="translate(-586.325 -7.686)" fill="#9f616a"/>
    <path id="Path_1347" data-name="Path 1347" d="M764.252,347.713s1.982.22,2.422.881,3.523,2.642,5.946,2.2,3.964-1.1,4.4-.881,1.321,4.844,1.321,4.844l-2.422,7.047.44,19.378.661,5.285s1.321-1.762-3.964-.661-12.111-.881-14.313-1.1-5.945-.881-6.166-2.2.661-6.166.661-6.166l3.523-14.754,2.2-7.927Z" transform="translate(-548.749 -31.127)" fill="#2c2c2c"/>
    <path id="Path_1348" data-name="Path 1348" d="M753.343,342.351s-1.863-.988-2.523-.107-9.028,2.2-9.028,2.863-1.762,18.5-1.321,20.038-.881,3.3-.881,3.3l-1.541,6.606s-4.184,12.552-2.422,12.992a11.464,11.464,0,0,0,3.964,0c.661,0,.44-8.368,2.2-10.57s4.184-7.707,4.624-8.808,5.945-16.295,5.725-18.057S753.343,342.351,753.343,342.351Z" transform="translate(-534.55 -26.902)" fill="#d0cde1"/>
    <path id="Path_1349" data-name="Path 1349" d="M829.773,347.713s1.762,0,1.982.44a24.1,24.1,0,0,0,3.3,3.964c.881.661,3.964,3.523,3.964,4.184s-6.386,5.505-6.386,5.505-2.642,12.992-1.321,17.4,3.3,14.974,2.422,15.634-2.863.881-2.863,0-1.321-10.35-2.422-12.331-4.4-14.533-3.083-18.057S829.773,347.713,829.773,347.713Z" transform="translate(-603.04 -31.421)" fill="#d0cde1"/>
    <path id="Path_1350" data-name="Path 1350" d="M728.138,434.453s-.22,6.826,2.2,10.35a41.841,41.841,0,0,1,3.964,7.487s3.964-1.1,4.624-2.422,4.844-.22,4.844-.661-5.065-2.642-5.505-3.083-1.982-.44-2.863-1.321a5.828,5.828,0,0,1-1.1-2.863l-.881-5.725Z" transform="translate(-529.148 -96.791)" fill="#9f616a"/>
    <path id="Path_1351" data-name="Path 1351" d="M793.147,271.945a4.188,4.188,0,0,1-1.63-.373,2.182,2.182,0,0,1-.558-3.231,4.177,4.177,0,0,1,.774-.623l1.674-1.139a8.187,8.187,0,0,1,2.361-1.254,7.371,7.371,0,0,1,2.414-.143,16.313,16.313,0,0,1,4.625.841,7.739,7.739,0,0,1,3.747,2.742,8.236,8.236,0,0,1,.656,7.184,24.362,24.362,0,0,1-3.724,6.448l-.758-3.7a1.365,1.365,0,0,0-.429-.886c-.681-.485-1.514.51-2.35.5a1.407,1.407,0,0,1-1.191-.943,5.371,5.371,0,0,1-.264-1.582c-.1-1.133-.5-2.71-1.569-3.335C795.925,271.876,794.271,272.048,793.147,271.945Z" transform="translate(-577.144 32.509)" fill="#2f2e41"/>
    <path id="Path_1352" data-name="Path 1352" d="M802.735,533.965s.744,21.512,1.184,22.173,0-22.241,0-22.241Z" transform="translate(-585.237 -172.909)" opacity="0.1"/>
    <path id="Path_1353" data-name="Path 1353" d="M733.323,354.722h-1.762s-7.487,10.129-6.606,10.79,0,2.422,0,2.422l-1.762,3.3s-2.2,1.982-1.541,2.422a8.045,8.045,0,0,1,1.541,2.2s4.4-.661,5.725,1.982l2.856-3.606Z" transform="translate(-524.063 -36.042)" fill="#d0cde1"/>
    <path id="Path_1354" data-name="Path 1354" d="M766.831,394.185a19.4,19.4,0,0,1-10.349-3.3l-5.505-2.422s-4.844-7.487-5.285-6.166.661,3.964.661,3.964-7.214,1.375-6.816,3.481c.082.434,3.733-.618,3.733-.618s-.661,4.184,3.083,4.4,4.844-.661,4.844-.661,15.855,13.212,18.5,9.028S766.831,394.185,766.831,394.185Z" transform="translate(-538.998 -56.917)" fill="#9f616a"/>
    <path id="Path_1355" data-name="Path 1355" d="M850.549,378.379l2.422.881v6.606l.881,1.321s-.22,2.642-.881,3.3-1.982.44-1.541,1.982a8.346,8.346,0,0,1,.22,3.083s-3.964,5.065-4.184,4.4-3.3-8.808-3.743-8.808,4.4-12.772,4.4-12.772Z" transform="translate(-616.99 -54.075)" fill="#d0cde1"/>
    <path id="Path_1356" data-name="Path 1356" d="M751.412,499.706s-2.277-2.2-1.138-2.312,5.1-2.312,5.763-1.211S751.412,499.706,751.412,499.706Z" transform="translate(-545.437 -143.22)" fill="#2f2e41"/>
    <path id="Path_1357" data-name="Path 1357" d="M409.335,705.788c0,5.647-3.357,7.619-7.5,7.619q-.144,0-.287,0c-.192,0-.382-.013-.57-.026-3.737-.265-6.641-2.338-6.641-7.589,0-5.435,6.945-12.293,7.467-12.8h0l.03-.029S409.335,700.141,409.335,705.788Z" transform="translate(-276.581 -295.339)" fill="#4caf50"/>
    <path id="Path_1358" data-name="Path 1358" d="M414.108,712.543l2.742-3.832-2.749,4.253-.007.44c-.192,0-.382-.013-.57-.026l.3-5.65,0-.044.005-.008.028-.534-2.756-4.263,2.765,3.863.006.113.223-4.269-2.36-4.405,2.388,3.656.233-8.85v0l-.039,6.979,2.349-2.767-2.359,3.368-.062,3.822,2.193-3.668-2.2,4.23-.035,2.125,3.184-5.105-3.2,5.847Z" transform="translate(-289.191 -295.339)" fill="#3f3d56"/>
  </g>
</svg>
