<svg xmlns="http://www.w3.org/2000/svg" width="20.471" height="20.471" viewBox="0 0 20.471 20.471">
  <path id="FontAwsome_envelope-open_" data-name="FontAwsome (envelope-open)" d="M19.775,6.578c-.188-.155-4.467-3.6-5.408-4.344C13.483,1.527,11.972,0,10.236,0S7.012,1.508,6.1,2.233C5.126,3.011.863,6.439.7,6.573A1.919,1.919,0,0,0,0,8.056v10.5a1.919,1.919,0,0,0,1.919,1.919H18.552a1.919,1.919,0,0,0,1.919-1.919V8.057a1.919,1.919,0,0,0-.7-1.479ZM18.552,18.312a.24.24,0,0,1-.24.24H2.159a.24.24,0,0,1-.24-.24V8.17a.24.24,0,0,1,.089-.187c.635-.512,4.35-3.5,5.292-4.25.726-.58,1.991-1.815,2.935-1.815s2.233,1.254,2.935,1.815c.943.749,4.658,3.738,5.292,4.251a.239.239,0,0,1,.089.186Zm-1.279-7.5a.48.48,0,0,1-.07.679c-1.159.931-2.37,1.9-2.836,2.274-.908.725-2.4,2.233-4.132,2.233S6.986,14.464,6.1,13.76c-.451-.359-1.669-1.336-2.836-2.274a.48.48,0,0,1-.07-.679l.61-.741A.48.48,0,0,1,4.479,10c1.144.92,2.342,1.881,2.821,2.262.7.561,1.988,1.815,2.935,1.815s2.209-1.235,2.935-1.815c.48-.381,1.677-1.342,2.821-2.262a.48.48,0,0,1,.671.069l.61.741Z" fill="#395d45"/>
</svg>
