<svg xmlns="http://www.w3.org/2000/svg" width="21.828" height="21.828" viewBox="0 0 21.828 21.828">
  <path id="coins.3" d="M13.643,0C9.123,0,5.457,1.526,5.457,3.411V5.653C2.281,6.122,0,7.384,0,8.868v9.55c0,1.884,3.666,3.411,8.186,3.411s8.186-1.526,8.186-3.411V16.171c3.176-.469,5.457-1.727,5.457-3.21V3.411C21.828,1.526,18.162,0,13.643,0Zm.682,18.26c-.426.5-2.575,1.522-6.139,1.522S2.473,18.759,2.046,18.26V16.576a14.966,14.966,0,0,0,6.139,1.16,14.966,14.966,0,0,0,6.139-1.16Zm0-4.093c-.426.5-2.575,1.522-6.139,1.522s-5.713-1.023-6.139-1.522V12.253a12.793,12.793,0,0,0,6.139,1.39,12.842,12.842,0,0,0,6.139-1.39ZM8.186,11.6C4.8,11.6,2.046,10.68,2.046,9.55S4.8,7.5,8.186,7.5s6.139.917,6.139,2.046S11.575,11.6,8.186,11.6Zm11.6,1.207a6.873,6.873,0,0,1-3.411,1.3V12.065a12.41,12.41,0,0,0,3.411-.946Zm0-4.093a6.873,6.873,0,0,1-3.411,1.3V8.868a1.65,1.65,0,0,0-.29-.891,11.082,11.082,0,0,0,3.7-1.185V8.71ZM13.643,6.139c-.213,0-.418-.013-.627-.021a16.236,16.236,0,0,0-3.854-.635C8.143,5.116,7.5,4.63,7.5,4.093c0-1.13,2.75-2.046,6.139-2.046s6.139.917,6.139,2.046S17.032,6.139,13.643,6.139Z" fill="#d4af37"/>
</svg>
