<svg id="Group_288" data-name="Group 288" xmlns="http://www.w3.org/2000/svg" width="31.494" height="29.274" viewBox="0 0 31.494 29.274">
  <rect id="Rectangle_1149" data-name="Rectangle 1149" width="8.993" height="7.946" transform="translate(22.502 11.08)" fill="#fff"/>
  <rect id="Rectangle_1150" data-name="Rectangle 1150" width="8.993" height="7.946" transform="translate(0 11.08)" fill="#fff"/>
  <path id="Path_895" data-name="Path 895" d="M14.814,35.7V28.9H6.374A9.974,9.974,0,0,0,14.814,35.7Z" transform="translate(-5.824 -6.527)" fill="#fff"/>
  <rect id="Rectangle_1151" data-name="Rectangle 1151" width="6.822" height="6.899" transform="translate(12.333 22.376)" fill="#fff"/>
  <path id="Path_896" data-name="Path 896" d="M21.649,28.9h-8.44V35.7A9.974,9.974,0,0,0,21.649,28.9Z" transform="translate(9.293 -6.527)" fill="#fff"/>
  <path id="Path_897" data-name="Path 897" d="M16.862,29.673H28.91a10.027,10.027,0,0,0-9.748-7.737H10.044V40.965h6.822V29.67h0Z" transform="translate(2.293 -21.936)" fill="#fff"/>
  <path id="Path_898" data-name="Path 898" d="M14.994,21.969a9.993,9.993,0,0,0-8.7,7.631h8.7Z" transform="translate(-6.004 -21.863)" fill="#fff"/>
</svg>
