<svg xmlns="http://www.w3.org/2000/svg" xmlns:xlink="http://www.w3.org/1999/xlink" width="314.007" height="284.49" viewBox="0 0 314.007 284.49">
  <defs>
    <linearGradient id="linear-gradient" y1="0.5" x2="1" y2="0.5" gradientUnits="objectBoundingBox">
      <stop offset="0" stop-color="#c1edd6"/>
      <stop offset="1" stop-color="#c1edd6"/>
    </linearGradient>
    <linearGradient id="linear-gradient-2" y1="0.5" x2="1" y2="0.5" gradientUnits="objectBoundingBox">
      <stop offset="0" stop-color="#37833a"/>
      <stop offset="1" stop-color="#4caf50" stop-opacity="0"/>
    </linearGradient>
    <linearGradient id="linear-gradient-3" y1="0.5" x2="1" y2="0.5" gradientUnits="objectBoundingBox">
      <stop offset="0" stop-color="#c1edd6"/>
      <stop offset="1" stop-color="#c1edd6" stop-opacity="0"/>
    </linearGradient>
    <linearGradient id="linear-gradient-5" x1="-0.054" y1="0.5" x2="0.946" y2="0.5" xlink:href="#linear-gradient-3"/>
    <linearGradient id="linear-gradient-6" x1="0.027" y1="0.49" x2="1.016" y2="0.49" gradientUnits="objectBoundingBox">
      <stop offset="0" stop-color="#37833a"/>
      <stop offset="1" stop-color="#51bf55" stop-opacity="0"/>
    </linearGradient>
    <linearGradient id="linear-gradient-8" y1="0.5" x2="1" y2="0.5" gradientUnits="objectBoundingBox">
      <stop offset="0" stop-color="#daffdd"/>
      <stop offset="1" stop-color="#daffdd" stop-opacity="0.031"/>
    </linearGradient>
    <linearGradient id="linear-gradient-9" y1="0.5" x2="1" y2="0.5" gradientUnits="objectBoundingBox">
      <stop offset="0" stop-color="#daffdd"/>
      <stop offset="1" stop-color="#5083c2" stop-opacity="0"/>
    </linearGradient>
    <linearGradient id="linear-gradient-10" y1="0.5" x2="1" y2="0.5" gradientUnits="objectBoundingBox">
      <stop offset="0" stop-color="#347437"/>
      <stop offset="1" stop-color="#4caf50" stop-opacity="0"/>
    </linearGradient>
  </defs>
  <g id="Security_Illustration" data-name="Security Illustration" transform="translate(-39.076 -71.625)">
    <g id="Group_361" data-name="Group 361" transform="translate(56.535 71.625)">
      <line id="Line_17" data-name="Line 17" x1="50.29" y1="29.256" transform="translate(52.571 88.598)" fill="none" stroke="#c1edd6" stroke-linecap="round" stroke-miterlimit="10" stroke-width="5"/>
      <path id="Path_1567" data-name="Path 1567" d="M99.24,200.615l44.766-25.963a1.4,1.4,0,0,0-.046-2.456l-28.76-15.27a3.183,3.183,0,0,0-3.1.067L66.162,183.964a1,1,0,0,0,.045,1.756L95.03,200.711A4.372,4.372,0,0,0,99.24,200.615Z" transform="translate(-62.787 -91.595)" fill="url(#linear-gradient)"/>
      <path id="Path_1568" data-name="Path 1568" d="M95.364,185.589l45.366-26.312c.76-.441,1.013-2.876.237-3.288l-31.057-15.014L62.426,167.461c-.606.356-.74,2.724-.117,3.048l29.163,15.169A4.043,4.043,0,0,0,95.364,185.589Z" transform="translate(-61.902 -87.932)" fill="#395d45"/>
      <path id="Path_1569" data-name="Path 1569" d="M95.558,183.431l44.766-25.963a1.4,1.4,0,0,0-.046-2.455l-28.761-15.271a3.182,3.182,0,0,0-3.1.067L62.479,166.78a1,1,0,0,0,.045,1.756l28.823,14.991A4.374,4.374,0,0,0,95.558,183.431Z" transform="translate(-61.921 -87.554)" fill="#4caf50"/>
      <path id="Path_1570" data-name="Path 1570" d="M99.741,178.6,130.9,160.53a.977.977,0,0,0-.032-1.709l-20.017-10.628a2.214,2.214,0,0,0-2.159.047L76.719,167.012a.7.7,0,0,0,.031,1.222l20.061,10.434A3.043,3.043,0,0,0,99.741,178.6Z" transform="translate(-65.305 -89.568)" fill="url(#linear-gradient-2)"/>
      <g id="Group_360" data-name="Group 360" transform="translate(9.702)">
        <path id="Path_1571" data-name="Path 1571" d="M97.929,131.431l35.148-20.385L109.734,98.652,74.586,119.29Z" transform="translate(-74.586 -77.98)" fill="#fffbb0"/>
        <path id="Path_1572" data-name="Path 1572" d="M104.643,135.353l-.133,32.821,35.6-20.792V114.856Z" transform="translate(-81.622 -81.79)" fill="#ffcc10"/>
        <path id="Path_1573" data-name="Path 1573" d="M97.929,137.775l-.456,32.933L74.586,157.6V125.634Z" transform="translate(-74.586 -84.324)" fill="#d3a600"/>
        <path id="Path_1574" data-name="Path 1574" d="M91.376,127.891s1.459,2.468,6.393,2.356l2.355-10.992S92.386,121.947,91.376,127.891Z" transform="translate(-78.534 -82.824)" fill="#d3a600"/>
        <path id="Path_1575" data-name="Path 1575" d="M119.316,111.618s1.458,2.467,6.393,2.355l2.356-10.991S120.326,105.674,119.316,111.618Z" transform="translate(-85.104 -78.998)" fill="#d3a600"/>
        <path id="Path_1576" data-name="Path 1576" d="M91.367,108.237V89.332a9.618,9.618,0,0,1,4.727-8.281l17.32-8.887c4.711-2.019,11.546,2.026,11.553,5.608l-5.334,22.053-6.9,4.374V82.876a1.7,1.7,0,0,0-2.533-1.485l-9.269,5.187A4.553,4.553,0,0,0,98.6,90.551v21.556l-7.234,4.543Z" transform="translate(-78.532 -71.625)" fill="#d3a600"/>
        <path id="Path_1577" data-name="Path 1577" d="M99.735,111.439V92.533a9.618,9.618,0,0,1,4.727-8.281l16.51-8.763c2.821-1.4,6.979.61,6.985,4.192L128,103.027s-.547,4.3-6.9,4.374V86.076a1.7,1.7,0,0,0-2.533-1.485L109.3,89.778a4.554,4.554,0,0,0-2.33,3.973v21.557s-1.43,3.757-7.234,4.543Z" transform="translate(-80.499 -72.428)" fill="#ffcb28"/>
        <path id="Path_1578" data-name="Path 1578" d="M129.957,150.623l1.8,3.836-8.378,4.771.895-4.28.391-1.885a5.077,5.077,0,0,1-3.54-1.016,4.34,4.34,0,0,1-.834-.855,6.909,6.909,0,0,1-1.3-3.681c-.672-7.369,5.519-14.489,11.185-13.87.088.007.168.014.249.027,3.883.579,5.209,5.027,4.152,9.334A15.648,15.648,0,0,1,129.957,150.623Z" transform="translate(-85.015 -86.199)" fill="#8a6900"/>
        <path id="Path_1579" data-name="Path 1579" d="M126.593,148.772l1.8,3.829-4.119,2.349.391-1.885a5.077,5.077,0,0,1-3.54-1.016l.174-.834a6.318,6.318,0,0,1-1.009-.021,6.909,6.909,0,0,1-1.3-3.681c-.672-7.369,5.519-14.489,11.185-13.87,1.4,1.817,1.73,4.691,1.036,7.51A15.638,15.638,0,0,1,126.593,148.772Z" transform="translate(-85.015 -86.199)" fill="#634901"/>
      </g>
    </g>
    <g id="Group_373" data-name="Group 373" transform="translate(205.616 85.696)">
      <path id="Path_1607" data-name="Path 1607" d="M256.815,228.339l27.918-16.062,24.093,14.15,32.889-18.357" transform="translate(-256.815 -117.779)" fill="none" stroke="#c1edd6" stroke-linecap="round" stroke-miterlimit="10" stroke-width="5"/>
      <path id="Path_1604" data-name="Path 1604" d="M379.851,210.628l44.766-25.963a1.4,1.4,0,0,0-.046-2.456l-28.76-15.27a3.183,3.183,0,0,0-3.1.067l-45.935,26.971a1,1,0,0,0,.045,1.756l28.823,14.991A4.37,4.37,0,0,0,379.851,210.628Z" transform="translate(-277.85 -108.021)" fill="url(#linear-gradient-3)"/>
      <path id="Path_1605" data-name="Path 1605" d="M375.974,195.6l45.367-26.312c.76-.441,1.013-2.876.237-3.288l-31.057-15.014-47.485,26.486c-.605.356-.739,2.724-.116,3.048l29.163,15.169A4.042,4.042,0,0,0,375.974,195.6Z" transform="translate(-276.965 -104.357)" fill="#395d45"/>
      <path id="Path_1606" data-name="Path 1606" d="M376.168,193.445l44.766-25.963a1.4,1.4,0,0,0-.046-2.456l-28.76-15.27a3.183,3.183,0,0,0-3.1.067L343.09,176.794a1,1,0,0,0,.045,1.756l28.823,14.991A4.372,4.372,0,0,0,376.168,193.445Z" transform="translate(-276.984 -103.98)" fill="#4caf50"/>
      <path id="Path_1608" data-name="Path 1608" d="M375.728,186.62l35.853-20.365a.977.977,0,0,0-.032-1.709l-11.185-5.811a2.218,2.218,0,0,0-2.16.046l-36.667,21.067a.7.7,0,0,0,.031,1.222l11.229,5.617A3.044,3.044,0,0,0,375.728,186.62Z" transform="translate(-281.357 -106.118)" fill="url(#linear-gradient-2)"/>
      <g id="Group_372" data-name="Group 372" transform="translate(79.953)">
        <path id="Path_1609" data-name="Path 1609" d="M399.42,109.372a2.775,2.775,0,0,0-4.136-2.418l-33.937,19.089V161.26l9.756,4.045v-9.655l28.317-16.282Z" transform="translate(-361.347 -93.918)" fill="#8a6900"/>
        <g id="Group_370" data-name="Group 370" transform="translate(3.912)">
          <path id="Path_1610" data-name="Path 1610" d="M366.551,103.9l-.09,35.154,24.105-14.077V90.022Z" transform="translate(-366.461 -90.022)" fill="#d8d17c"/>
          <path id="Path_1611" data-name="Path 1611" d="M369.973,107.94l-.07,3.812,18.58-10.85V97.243Z" transform="translate(-367.271 -91.72)" fill="#bcb25b"/>
          <path id="Path_1612" data-name="Path 1612" d="M369.973,116.4l-.07,3.812,18.58-10.85v-3.659Z" transform="translate(-367.271 -93.71)" fill="#bcb25b"/>
          <path id="Path_1613" data-name="Path 1613" d="M369.973,124.358l-.07,3.812,18.58-10.85v-3.659Z" transform="translate(-367.271 -95.58)" fill="#bcb25b"/>
          <path id="Path_1614" data-name="Path 1614" d="M369.973,132.483l-.07,3.812,18.58-10.85v-3.659Z" transform="translate(-367.271 -97.491)" fill="#bcb25b"/>
        </g>
        <g id="Group_371" data-name="Group 371" transform="translate(11.645 5.83)">
          <path id="Path_1615" data-name="Path 1615" d="M376.662,111.522l-.09,35.154L400.678,132.6V97.644Z" transform="translate(-376.572 -97.644)" fill="#fffbb0"/>
          <path id="Path_1616" data-name="Path 1616" d="M380.085,115.562l-.069,3.812,18.58-10.85v-3.659Z" transform="translate(-377.382 -99.342)" fill="#d8d17c"/>
          <path id="Path_1617" data-name="Path 1617" d="M380.085,124.025l-.069,3.812,18.58-10.85v-3.659Z" transform="translate(-377.382 -101.332)" fill="#d8d17c"/>
          <path id="Path_1618" data-name="Path 1618" d="M380.085,131.98l-.069,3.812,18.58-10.85v-3.659Z" transform="translate(-377.382 -103.203)" fill="#d8d17c"/>
          <path id="Path_1619" data-name="Path 1619" d="M380.085,140.1l-.069,3.812,18.58-10.85v-3.659Z" transform="translate(-377.382 -105.113)" fill="#d8d17c"/>
        </g>
        <path id="Path_1620" data-name="Path 1620" d="M374.1,131.475v35.217L412.175,144.8V115.935a3.437,3.437,0,0,0-5.122-3Z" transform="translate(-364.346 -95.306)" fill="#ffcc10"/>
        <path id="Path_1621" data-name="Path 1621" d="M361.347,132.022l9.756,4.045v20.821l-9.7-3.391Z" transform="translate(-361.347 -99.897)" fill="#8a6900"/>
      </g>
    </g>
    <g id="Group_364" data-name="Group 364" transform="translate(39.076 238.55)">
      <line id="Line_18" data-name="Line 18" x1="52.615" y2="30.257" transform="translate(47.215 12.18)" fill="none" stroke="#c1edd6" stroke-linecap="round" stroke-miterlimit="10" stroke-width="5"/>
      <path id="Path_1580" data-name="Path 1580" d="M94.881,391.039,39.935,359.171a1.724,1.724,0,0,1,.057-3.014l35.3-18.743a3.9,3.9,0,0,1,3.808.082l56.382,33.1a1.232,1.232,0,0,1-.055,2.155l-35.378,18.4A5.366,5.366,0,0,1,94.881,391.039Z" transform="translate(-39.076 -300.94)" fill="url(#linear-gradient-5)"/>
      <path id="Path_1581" data-name="Path 1581" d="M99.451,372.6,43.768,340.3c-.933-.542-1.244-3.53-.291-4.036L81.6,317.837l58.284,32.51c.743.436.906,3.344.142,3.741l-35.794,18.618A4.962,4.962,0,0,1,99.451,372.6Z" transform="translate(-39.975 -296.443)" fill="#395d45"/>
      <path id="Path_1582" data-name="Path 1582" d="M99.4,369.947,44.455,338.08a1.724,1.724,0,0,1,.057-3.014l35.3-18.742a3.906,3.906,0,0,1,3.808.081L140,349.51a1.232,1.232,0,0,1-.056,2.155l-35.377,18.4A5.367,5.367,0,0,1,99.4,369.947Z" transform="translate(-40.139 -295.98)" fill="#4caf50"/>
      <path id="Path_1583" data-name="Path 1583" d="M111.9,367.019,63.29,339.6a.917.917,0,0,1-.012-1.6l6.537-3.749a2.075,2.075,0,0,1,2.025-.01l49.394,28.054a.655.655,0,0,1,0,1.147l-6.583,3.569A2.854,2.854,0,0,1,111.9,367.019Z" transform="translate(-44.657 -300.239)" fill="url(#linear-gradient-6)"/>
      <g id="Group_363" data-name="Group 363" transform="translate(10.125)">
        <path id="Path_1584" data-name="Path 1584" d="M54.509,294.044l6.38-3.726,3.93,4.288Z" transform="translate(-52.83 -289.973)" fill="#8a6900"/>
        <path id="Path_1585" data-name="Path 1585" d="M66.422,329.29l3.5-2.174-.511-5.371-2.941-.9Z" transform="translate(-55.631 -297.152)" fill="#8a6900"/>
        <path id="Path_1586" data-name="Path 1586" d="M98.86,309.677,65.676,290.4a3.933,3.933,0,0,0-5.907,3.374l-.124,18.116L70.557,318.2l-.171-12.617,3.239,1.876v8.866l7.288,4.385.171-9.037,15.56,9.6Z" transform="translate(-54.038 -289.866)" fill="#8a6900"/>
        <path id="Path_1587" data-name="Path 1587" d="M145.855,334.375c1.287,12.354-4.042,21.469-11.679,22.121-7.594.648-16.465-7.161-20.413-19.131-4.737-14.364-.839-29.187,9.714-30.286C134.115,305.97,144.307,319.517,145.855,334.375Z" transform="translate(-66.295 -293.899)" fill="#8a6900"/>
        <path id="Path_1588" data-name="Path 1588" d="M138.488,337.286c.866,12.248-4.815,21.087-12.524,21.49-7.665.4-16.322-7.6-19.879-19.549-4.268-14.343.171-28.867,10.83-29.62C127.661,308.847,137.447,322.556,138.488,337.286Z" transform="translate(-64.579 -294.501)" fill="#ffcc10"/>
        <g id="Group_362" data-name="Group 362" transform="translate(47.588 28.214)">
          <path id="Path_1589" data-name="Path 1589" d="M127.5,350.212a4.762,4.762,0,0,1-2.982,1.332c-3.548.192-7.572-3.841-9.227-9.867-2-7.226.057-14.536,5-14.908a5.223,5.223,0,0,1,1.78.167c4.228,1.14,7.8,7.274,8.241,13.792C130.592,344.991,129.424,348.423,127.5,350.212Z" transform="translate(-114.531 -326.754)" fill="#8a6900"/>
          <path id="Path_1590" data-name="Path 1590" d="M128.95,350.269c-3.039-.925-6.088-4.585-7.483-9.639-1.53-5.557-.68-11.175,2.052-13.636,4.228,1.14,7.8,7.274,8.241,13.792C132.045,345.047,130.877,348.48,128.95,350.269Z" transform="translate(-115.985 -326.81)" fill="#634901"/>
        </g>
        <path id="Path_1591" data-name="Path 1591" d="M95.541,316.6,57.788,294.915a3.572,3.572,0,0,0-5.365,3.064l-.109,15.95a4.794,4.794,0,0,0,2.395,4.184l8.5,4.913-.171-12.617,3.239,1.875v8.866l7.5,4.433.171-9.036L93.324,328.2Z" transform="translate(-52.314 -290.939)" fill="#ffcc10"/>
        <path id="Path_1592" data-name="Path 1592" d="M80.376,332.383l5.456-3.069V326.5l-5.286-3.154Z" transform="translate(-58.912 -297.739)" fill="#8a6900"/>
      </g>
    </g>
    <g id="Group_369" data-name="Group 369" transform="translate(99.17 78.903)">
      <g id="Group_366" data-name="Group 366" transform="translate(0 74.63)">
        <path id="Path_1593" data-name="Path 1593" d="M120.478,262.338l102.1,59.234a9.754,9.754,0,0,0,9.8-.008l67.752-39.451a5.289,5.289,0,0,0-.032-9.16L200.669,216a9.754,9.754,0,0,0-9.62-.042l-70.522,39.572A3.917,3.917,0,0,0,120.478,262.338Z" transform="translate(-117.852 -187.179)" fill="url(#linear-gradient-3)"/>
        <g id="Group_365" data-name="Group 365">
          <path id="Path_1594" data-name="Path 1594" d="M120.486,231.722,222.5,290.9a9.752,9.752,0,0,0,9.8-.008l68.608-39.949c6.8-3.983,1.832-12.4-2.885-12.906l-97.438-52.7a9.752,9.752,0,0,0-9.62-.042l-70.677,35.7C117.608,222.5,115.926,229.182,120.486,231.722Z" transform="translate(-117.645 -179.968)" fill="#395d45"/>
          <path id="Path_1595" data-name="Path 1595" d="M120.478,226.338l102.1,59.234a9.754,9.754,0,0,0,9.8-.008l67.752-39.451a5.289,5.289,0,0,0-.032-9.16L200.669,180a9.754,9.754,0,0,0-9.62-.042l-70.522,39.572A3.917,3.917,0,0,0,120.478,226.338Z" transform="translate(-117.852 -178.714)" fill="#4caf50"/>
          <path id="Path_1596" data-name="Path 1596" d="M129.729,224.745l90.829,52.693L288.7,237.911l-90.214-51.668Z" transform="translate(-120.486 -180.484)" fill="#e9ffee"/>
          <ellipse id="Ellipse_459" data-name="Ellipse 459" cx="6.629" cy="4.569" rx="6.629" ry="4.569" transform="translate(134.364 76.961)" fill="#3e9142"/>
          <path id="Path_1597" data-name="Path 1597" d="M159.9,212.124l24.284-14.15,5.223,3a1.65,1.65,0,0,1,.031,2.842l-19.369,11.711a5.17,5.17,0,0,1-5.671-.21Z" transform="translate(-127.58 -183.243)" fill="#4caf50"/>
        </g>
      </g>
      <g id="Group_368" data-name="Group 368" transform="translate(50.372)">
        <path id="Path_1598" data-name="Path 1598" d="M220.679,265.563l39.948-23.169L234.1,228.308l-39.948,23.456Z" transform="translate(-186.005 -115.745)" fill="url(#linear-gradient-8)"/>
        <g id="Group_367" data-name="Group 367">
          <path id="Path_1599" data-name="Path 1599" d="M267.383,86.764l-12.249-5.623C238.87,93.49,220.2,82.647,220.2,82.647c-14.758,30.721-34.938,36.745-34.938,36.745s-4.819,46.082,1.506,70.78,34.336,25,34.336,25a128.137,128.137,0,0,0,25.288-35.662,88.3,88.3,0,0,0,8.747-38.535V92.394A18.727,18.727,0,0,0,267.383,86.764Z" transform="translate(-183.501 -81.141)" fill="#d3a600"/>
          <path id="Path_1600" data-name="Path 1600" d="M271.148,88.492v59.832a88.3,88.3,0,0,1-8.748,38.535,128.106,128.106,0,0,1-25.287,35.662s-28.01-.3-34.336-25-1.506-70.779-1.506-70.779S221.452,120.719,236.21,90C236.21,90,254.884,100.841,271.148,88.492Z" transform="translate(-187.267 -82.869)" fill="#ffcc10"/>
          <path id="Path_1601" data-name="Path 1601" d="M267.823,107.226l-.88,49.086a70.32,70.32,0,0,1-6.606,28.678,104.276,104.276,0,0,1-20.851,29.936s-21.721-.633-26.27-20.653-.145-57.146-.145-57.146,15.739-4.582,27.631-29.17C240.7,107.956,255.029,116.967,267.823,107.226Z" transform="translate(-190.004 -87.275)" fill="#fffbb0"/>
          <path id="Path_1602" data-name="Path 1602" d="M263.085,169.085c-2.619,12.841-11,23.876-19.707,26.371-9.578,2.744-18.069-5.188-18.069-20.072,0-17.855,11.646-35.175,24.353-35.175C260.846,140.208,266.125,154.177,263.085,169.085Z" transform="translate(-193.332 -95.03)" fill="#634901"/>
          <path id="Path_1603" data-name="Path 1603" d="M227.042,177.932l4.452-5.56,6.571,5.417,19.966-26.283,2.082,5.238-20.987,30.781Z" transform="translate(-193.739 -97.686)" fill="#fffbb0"/>
        </g>
      </g>
    </g>
    <g id="Group_377" data-name="Group 377" transform="translate(205.627 182.242)">
      <g id="Group_375" data-name="Group 375">
        <path id="Path_1622" data-name="Path 1622" d="M290.233,420.313,390.324,365.26a1.4,1.4,0,0,0-.046-2.455l-28.76-15.27a3.179,3.179,0,0,0-3.1.067L312.48,374.573c-.681.4-55.98,30.482-55.281,30.846l28.823,14.991A4.372,4.372,0,0,0,290.233,420.313Z" transform="translate(-256.914 -247.03)" fill="url(#linear-gradient-9)"/>
        <path id="Path_1623" data-name="Path 1623" d="M290.687,407.1l97.255-57.211c.76-.441,1.013-2.876.237-3.288l-31.057-15.013L257.748,388.97c-.605.355-.739,2.724-.116,3.048l29.163,15.168A4.043,4.043,0,0,0,290.687,407.1Z" transform="translate(-256.921 -243.367)" fill="#395d45"/>
        <path id="Path_1624" data-name="Path 1624" d="M290.4,404.8l97.02-56.724a1.4,1.4,0,0,0-.046-2.455l-28.761-15.27a3.18,3.18,0,0,0-3.1.067l-98.189,57.732a1,1,0,0,0,.045,1.756L286.192,404.9A4.37,4.37,0,0,0,290.4,404.8Z" transform="translate(-256.828 -242.99)" fill="#4caf50"/>
        <g id="Group_374" data-name="Group 374" transform="translate(83.729)">
          <path id="Path_1625" data-name="Path 1625" d="M374.874,354.763s-.49,1.592,4.406,2.448,5.377-3.442,7.59-4.407c4.774-2.081,10.9-.49,12.609-1.714s-4.529-4.406-6.488-4.406-4.53,1.346-6.244,2.571S372.916,352.07,374.874,354.763Z" transform="translate(-368.263 -246.918)" fill="url(#linear-gradient-10)"/>
          <path id="Path_1626" data-name="Path 1626" d="M403.616,252.675s1.314,8.927-1.469,12.363-9.244-.527-9.244-.527l-.145-5.141,5.554.847-1.632-3.509Z" transform="translate(-372.519 -224.813)" fill="#ac703d"/>
          <path id="Path_1627" data-name="Path 1627" d="M397.108,235.626c6.55-.49,8.325,14.261,8.325,14.261l-5.2,4.53S392.24,235.99,397.108,235.626Z" transform="translate(-373.172 -220.801)" fill="#101010"/>
          <path id="Path_1628" data-name="Path 1628" d="M367.4,264.758s-2.663,7.437.276,10.742,10.466-.826,10.466-.826l-.092-5.141-5.509,1.1,1.469-3.58Z" transform="translate(-366.297 -227.654)" fill="#ac703d"/>
          <path id="Path_1629" data-name="Path 1629" d="M396.918,276.041l-2.387,47.742s1.1,2.2-5.019.245L388.41,290l-.98,1.592-4.162,20.075s-2.571,1.959-6.244-.857l2.265-32.379Z" transform="translate(-368.819 -230.307)" fill="#000117"/>
          <path id="Path_1630" data-name="Path 1630" d="M383.476,234.424s-9.732,6.978-9.732,7.529,4.774,26.625,4.774,26.625,11.2,3.856,17.628-2.387l.573-24.166a7.279,7.279,0,0,0-5.037-7.147A17.566,17.566,0,0,0,383.476,234.424Z" transform="translate(-368.048 -220.456)" fill="#2c2c2c"/>
          <path id="Path_1631" data-name="Path 1631" d="M394.926,218.753s1.454.772,1.26,6.56-3.392,5.693-3.392,5.693l-.581,3.184a5.583,5.583,0,0,1-3.1.772,4.758,4.758,0,0,1-3.2-1.158v-4.052s-1.745-5.6-1.26-8.49S389.79,214.6,394.926,218.753Z" transform="translate(-370.593 -216.404)" fill="#ac703d"/>
          <path id="Path_1632" data-name="Path 1632" d="M392.683,308.823a37.573,37.573,0,0,0-1.224,13.344c.734,6.977,1.958,12.608,1.958,12.608s3.306,1.225,5.019,1.1l.612-27.666Z" transform="translate(-372.174 -237.872)" fill="#000117"/>
          <path id="Path_1633" data-name="Path 1633" d="M389.412,224.469s-.092,2.112-1.377,2.984c0,0-.5-1.423-1.194-1.423s-.826,2.8.368,3.03l-1.515,1.515s-1.882-4.315-1.194-7.529C384.5,223.046,389.045,223.872,389.412,224.469Z" transform="translate(-370.541 -217.846)" fill="#000117"/>
          <path id="Path_1634" data-name="Path 1634" d="M376.418,319.094s-4.039,11.263-1.836,23.259a8.486,8.486,0,0,0,5.264.98l2.693-21.545Z" transform="translate(-368.09 -240.43)" fill="#000117"/>
          <path id="Path_1635" data-name="Path 1635" d="M384.547,221.447s1.607,1.377,6.335,1.469,5.738-.964,5.738-.964-.643-3.81-1.606-5.1-7.666-.138-7.666-.138S384.731,217.637,384.547,221.447Z" transform="translate(-370.588 -216.248)" fill="#395d45"/>
          <path id="Path_1636" data-name="Path 1636" d="M389.109,224.1a10.746,10.746,0,0,0,5.05,1.7c2.708.092,5.05-.734,5.325-1.148s-1.24-1.606-2.617-2.111S391.4,224.287,389.109,224.1Z" transform="translate(-371.661 -217.711)" fill="#213628"/>
          <path id="Path_1637" data-name="Path 1637" d="M372.962,244.627a10.21,10.21,0,0,1,4.5,8.079c.275,5.6-3.672,11.293-3.672,11.293l-6.886-4.132,5.233-15.516Z" transform="translate(-366.439 -222.856)" fill="#2c2c2c"/>
          <path id="Path_1638" data-name="Path 1638" d="M394.71,342.549a17.235,17.235,0,0,1,.184,2.877c-.061,1.286-.061,1.836-.061,1.836s.122.919,1.775,1.1a9.108,9.108,0,0,1,3.367,1.04c1.1.49,3.978,1.469,5.264.612s-2.02-2.693-3.734-3.794-3.121-2.081-3.06-3.489S394.71,342.549,394.71,342.549Z" transform="translate(-372.978 -245.83)" fill="#000117"/>
          <path id="Path_1639" data-name="Path 1639" d="M379.071,349.462a5.751,5.751,0,0,0,1.286,3.612c1.377,1.652,4.529,3.427,3.733,4.958-.508.977-4.8-.337-6.182-.98s-2.632-.948-2.815-1.959a42.786,42.786,0,0,1,.428-5.845C375.613,348.146,379.071,349.462,379.071,349.462Z" transform="translate(-368.356 -247.417)" fill="#000117"/>
        </g>
      </g>
      <g id="Group_376" data-name="Group 376" transform="translate(15.498 37.859)">
        <path id="Path_1655" data-name="Path 1655" d="M374.874,354.763s-.49,1.592,4.406,2.448,5.377-3.442,7.59-4.407c4.774-2.081,10.9-.49,12.609-1.714s-4.529-4.406-6.488-4.406-4.53,1.346-6.244,2.571S372.916,352.07,374.874,354.763Z" transform="translate(-368.106 -246.534)" fill="url(#linear-gradient-10)"/>
        <path id="Path_1641" data-name="Path 1641" d="M314.41,302.173s1.313,8.927-1.469,12.364-9.244-.528-9.244-.528l-.145-5.14,5.554.847-1.632-3.509Z" transform="translate(-283.312 -274.311)" fill="#ac703d"/>
        <path id="Path_1642" data-name="Path 1642" d="M307.9,285.124c6.549-.49,8.324,14.261,8.324,14.261l-5.2,4.53S303.034,285.488,307.9,285.124Z" transform="translate(-283.965 -270.299)" fill="#101010"/>
        <path id="Path_1643" data-name="Path 1643" d="M278.2,314.257s-2.663,7.436.275,10.742,10.466-.827,10.466-.827l-.092-5.141-5.509,1.1,1.469-3.581Z" transform="translate(-277.09 -277.152)" fill="#ac703d"/>
        <path id="Path_1644" data-name="Path 1644" d="M307.712,325.54l-2.387,47.741s1.1,2.2-5.019.246l-1.1-34.032-.979,1.592-4.162,20.076s-2.571,1.958-6.243-.857l2.265-32.378Z" transform="translate(-279.613 -279.805)" fill="#000117"/>
        <path id="Path_1645" data-name="Path 1645" d="M294.27,283.923s-9.732,6.977-9.732,7.529,4.774,26.625,4.774,26.625,11.2,3.856,17.628-2.387l.573-24.167a7.278,7.278,0,0,0-5.037-7.146A17.551,17.551,0,0,0,294.27,283.923Z" transform="translate(-278.841 -269.954)" fill="#2c2c2c"/>
        <path id="Path_1646" data-name="Path 1646" d="M305.719,268.251s1.454.772,1.26,6.561-3.393,5.692-3.393,5.692l-.581,3.184a5.582,5.582,0,0,1-3.1.772,4.763,4.763,0,0,1-3.2-1.157v-4.052s-1.745-5.6-1.26-8.491S300.583,264.1,305.719,268.251Z" transform="translate(-281.386 -265.902)" fill="#ac703d"/>
        <path id="Path_1647" data-name="Path 1647" d="M303.477,358.322a37.577,37.577,0,0,0-1.225,13.343c.734,6.978,1.959,12.609,1.959,12.609s3.3,1.224,5.019,1.1l.612-27.665Z" transform="translate(-282.968 -287.37)" fill="#000117"/>
        <path id="Path_1648" data-name="Path 1648" d="M300.206,273.967s-.092,2.112-1.378,2.984c0,0-.5-1.423-1.193-1.423s-.826,2.8.367,3.03l-1.515,1.515s-1.882-4.315-1.193-7.529C295.294,272.544,299.839,273.37,300.206,273.967Z" transform="translate(-281.335 -267.344)" fill="#000117"/>
        <path id="Path_1649" data-name="Path 1649" d="M287.212,368.593s-4.04,11.262-1.836,23.259a8.489,8.489,0,0,0,5.264.979l2.693-21.545Z" transform="translate(-278.884 -289.929)" fill="#000117"/>
        <path id="Path_1650" data-name="Path 1650" d="M295.341,270.945s1.607,1.378,6.335,1.469,5.739-.964,5.739-.964-.643-3.81-1.607-5.1-7.666-.138-7.666-.138S295.525,267.136,295.341,270.945Z" transform="translate(-281.382 -265.746)" fill="#395d45"/>
        <path id="Path_1651" data-name="Path 1651" d="M299.9,273.6a10.749,10.749,0,0,0,5.05,1.7c2.708.092,5.05-.734,5.325-1.147s-1.239-1.607-2.617-2.112S302.2,273.786,299.9,273.6Z" transform="translate(-282.454 -267.209)" fill="#213628"/>
        <path id="Path_1652" data-name="Path 1652" d="M283.755,294.126a10.209,10.209,0,0,1,4.5,8.079c.275,5.6-3.673,11.292-3.673,11.292l-6.885-4.131,5.233-15.516Z" transform="translate(-277.233 -272.354)" fill="#2c2c2c"/>
        <path id="Path_1653" data-name="Path 1653" d="M305.5,392.048a17.261,17.261,0,0,1,.184,2.877c-.061,1.285-.061,1.836-.061,1.836s.122.918,1.775,1.1a9.1,9.1,0,0,1,3.366,1.04c1.1.49,3.979,1.469,5.264.613s-2.02-2.693-3.733-3.8-3.122-2.081-3.061-3.489S305.5,392.048,305.5,392.048Z" transform="translate(-283.771 -295.328)" fill="#000117"/>
        <path id="Path_1654" data-name="Path 1654" d="M289.865,398.961a5.752,5.752,0,0,0,1.285,3.611c1.378,1.653,4.53,3.427,3.734,4.958-.509.978-4.8-.337-6.182-.979s-2.632-.949-2.815-1.959a42.772,42.772,0,0,1,.428-5.845C286.406,397.645,289.865,398.961,289.865,398.961Z" transform="translate(-279.149 -296.916)" fill="#000117"/>
      </g>
    </g>
  </g>
</svg>
