<svg xmlns="http://www.w3.org/2000/svg" xmlns:xlink="http://www.w3.org/1999/xlink" width="382" height="66" viewBox="0 0 382 66">
  <defs>
    <linearGradient id="linear-gradient" x1="0.785" y1="-1.54" x2="-0.066" y2="1.962" gradientUnits="objectBoundingBox">
      <stop offset="0" stop-color="#ffbc43"/>
      <stop offset="0.167" stop-color="#fe5b24"/>
      <stop offset="0.498" stop-color="#e92c7b"/>
      <stop offset="0.783" stop-color="#af2eb3"/>
      <stop offset="1" stop-color="#3241d7"/>
    </linearGradient>
    <filter id="Rectangle_1683" x="316" y="0" width="66" height="66" filterUnits="userSpaceOnUse">
      <feOffset dy="2" input="SourceAlpha"/>
      <feGaussianBlur stdDeviation="3" result="blur"/>
      <feFlood flood-opacity="0.161"/>
      <feComposite operator="in" in2="blur"/>
      <feComposite in="SourceGraphic"/>
    </filter>
  </defs>
  <g id="Group_1065" data-name="Group 1065" transform="translate(-474 -546)">
    <g id="Group_1060" data-name="Group 1060" transform="translate(-725 -389)">
      <circle id="Ellipse_494" data-name="Ellipse 494" cx="24" cy="24" r="24" transform="translate(1264 942)" fill="#1bd741"/>
      <path id="FontAwsome_whatsapp_" data-name="FontAwsome (whatsapp)" d="M17.405,34.975A10.147,10.147,0,0,0,1.439,47.216L0,52.471l5.378-1.412a10.113,10.113,0,0,0,4.848,1.234h0a10.08,10.08,0,0,0,7.174-17.318ZM10.231,50.584a8.416,8.416,0,0,1-4.3-1.174l-.306-.183-3.189.836.85-3.112-.2-.32a8.448,8.448,0,1,1,15.669-4.483A8.526,8.526,0,0,1,10.231,50.584Zm4.624-6.315c-.251-.128-1.5-.74-1.732-.823s-.4-.128-.571.128-.653.823-.8,1-.3.192-.548.064a6.9,6.9,0,0,1-3.45-3.016c-.26-.448.26-.416.745-1.385a.47.47,0,0,0-.023-.443c-.064-.128-.571-1.375-.781-1.883s-.416-.425-.571-.434-.315-.009-.484-.009a.939.939,0,0,0-.676.315A2.848,2.848,0,0,0,5.072,39.9,4.966,4.966,0,0,0,6.1,42.519a11.327,11.327,0,0,0,4.332,3.829,4.96,4.96,0,0,0,3.043.635,2.6,2.6,0,0,0,1.709-1.206,2.12,2.12,0,0,0,.146-1.206C15.276,44.456,15.107,44.392,14.855,44.269Z" transform="translate(1278 924)" fill="#fff"/>
    </g>
    <g id="Group_1059" data-name="Group 1059" transform="translate(-721 -389)">
      <circle id="Ellipse_493" data-name="Ellipse 493" cx="24" cy="24" r="24" transform="translate(1195 942)" fill="#f14336"/>
      <path id="FontAwsome_envelope-open_" data-name="FontAwsome (envelope-open)" d="M19.775,6.578c-.188-.155-4.467-3.6-5.408-4.344C13.483,1.527,11.972,0,10.236,0S7.012,1.508,6.1,2.233C5.126,3.011.863,6.439.7,6.573A1.919,1.919,0,0,0,0,8.056v10.5a1.919,1.919,0,0,0,1.919,1.919H18.552a1.919,1.919,0,0,0,1.919-1.919V8.057a1.919,1.919,0,0,0-.7-1.479ZM18.552,18.312a.24.24,0,0,1-.24.24H2.159a.24.24,0,0,1-.24-.24V8.17a.24.24,0,0,1,.089-.187c.635-.512,4.35-3.5,5.292-4.25.726-.58,1.991-1.815,2.935-1.815s2.233,1.254,2.935,1.815c.943.749,4.658,3.738,5.292,4.251a.239.239,0,0,1,.089.186Zm-1.279-7.5a.48.48,0,0,1-.07.679c-1.159.931-2.37,1.9-2.836,2.274-.908.725-2.4,2.233-4.132,2.233S6.986,14.464,6.1,13.76c-.451-.359-1.669-1.336-2.836-2.274a.48.48,0,0,1-.07-.679l.61-.741A.48.48,0,0,1,4.479,10c1.144.92,2.342,1.881,2.821,2.262.7.561,1.988,1.815,2.935,1.815s2.209-1.235,2.935-1.815c.48-.381,1.677-1.342,2.821-2.262a.48.48,0,0,1,.671.069l.61.741Z" transform="translate(1209 956)" fill="#fff"/>
    </g>
    <g id="Group_1062" data-name="Group 1062" transform="translate(-729 -389)">
      <circle id="Ellipse_495" data-name="Ellipse 495" cx="24" cy="24" r="24" transform="translate(1398 942)" fill="#2fa3e6"/>
      <path id="telegram-plane" d="M21.392,66.036,18.157,81.292c-.244,1.077-.881,1.345-1.785.837L11.443,78.5,9.065,80.785a1.238,1.238,0,0,1-.991.483l.354-5.02,9.136-8.255c.4-.354-.086-.55-.617-.2L5.653,74.908.791,73.387c-1.058-.33-1.077-1.058.22-1.565L20.029,64.5C20.909,64.165,21.68,64.691,21.392,66.036Z" transform="translate(1410.984 892.601)" fill="#fff"/>
    </g>
    <g id="Group_1061" data-name="Group 1061" transform="translate(-729 -389)">
      <circle id="Ellipse_495-2" data-name="Ellipse 495" cx="24" cy="24" r="24" transform="translate(1333 942)" fill="#3b559f"/>
      <path id="facebook-f" d="M32.674,11l.543-3.538H29.822v-2.3a1.769,1.769,0,0,1,1.995-1.911H33.36V.239A18.82,18.82,0,0,0,30.62,0C27.825,0,26,1.694,26,4.762v2.7H22.89V11H26v8.552h3.825V11Z" transform="translate(1329.11 956)" fill="#fff"/>
    </g>
    <g id="Group_1063" data-name="Group 1063" transform="translate(-729 -389)">
      <circle id="Ellipse_496" data-name="Ellipse 496" cx="24" cy="24" r="24" transform="translate(1463 942)" fill="#0078b5"/>
      <path id="linkedin-in" d="M4.922,22H.363V7.318H4.922ZM2.64,5.316A2.653,2.653,0,1,1,5.281,2.65,2.663,2.663,0,0,1,2.64,5.316ZM21.986,22H17.436V14.853c0-1.7-.034-3.888-2.37-3.888-2.37,0-2.734,1.851-2.734,3.765V22H7.778V7.318h4.373v2h.064A4.791,4.791,0,0,1,16.528,6.95c4.614,0,5.462,3.038,5.462,6.985V22Z" transform="translate(1476 954.99)" fill="#fff"/>
    </g>
    <g id="Group_1064" data-name="Group 1064" transform="translate(-721 -389)">
      <g transform="matrix(1, 0, 0, 1, 1195, 935)" filter="url(#Rectangle_1683)">
        <rect id="Rectangle_1683-2" data-name="Rectangle 1683" width="48" height="48" rx="24" transform="translate(325 7)" fill="url(#linear-gradient)"/>
      </g>
      <path id="instagram" d="M11.385,37.406a5.874,5.874,0,1,0,5.874,5.874A5.864,5.864,0,0,0,11.385,37.406Zm0,9.692A3.819,3.819,0,1,1,15.2,43.28,3.826,3.826,0,0,1,11.385,47.1Zm7.484-9.933A1.37,1.37,0,1,1,17.5,35.8,1.367,1.367,0,0,1,18.869,37.166Zm3.89,1.39a6.78,6.78,0,0,0-1.851-4.8,6.825,6.825,0,0,0-4.8-1.851c-1.891-.107-7.561-.107-9.452,0a6.815,6.815,0,0,0-4.8,1.845,6.8,6.8,0,0,0-1.851,4.8C-.1,40.443-.1,46.112.006,48a6.78,6.78,0,0,0,1.851,4.8,6.833,6.833,0,0,0,4.8,1.851c1.891.107,7.561.107,9.452,0a6.78,6.78,0,0,0,4.8-1.851A6.825,6.825,0,0,0,22.759,48C22.867,46.112,22.867,40.448,22.759,38.556ZM20.316,50.033a3.866,3.866,0,0,1-2.178,2.178c-1.508.6-5.087.46-6.753.46s-5.25.133-6.753-.46a3.866,3.866,0,0,1-2.178-2.178c-.6-1.508-.46-5.087-.46-6.753s-.133-5.25.46-6.753a3.866,3.866,0,0,1,2.178-2.178c1.508-.6,5.087-.46,6.753-.46s5.25-.133,6.753.46a3.866,3.866,0,0,1,2.178,2.178c.6,1.508.46,5.087.46,6.753S20.914,48.53,20.316,50.033Z" transform="translate(1533.075 923.174)" fill="#fff"/>
    </g>
  </g>
</svg>
