<svg id="Group_286" data-name="Group 286" xmlns="http://www.w3.org/2000/svg" width="42.765" height="13.874" viewBox="0 0 42.765 13.874">
  <g id="Group_1044" data-name="Group 1044">
    <g id="Group_285" data-name="Group 285">
      <path id="Path_856" data-name="Path 856" d="M56.691,65.59H53.2l2.181-13.4h3.49Z" transform="translate(-38.153 -51.947)" fill="#f8fbff"/>
      <path id="Path_857" data-name="Path 857" d="M23.341,52.187l-3.327,9.218L19.62,59.42h0l-1.175-6.027a1.494,1.494,0,0,0-1.655-1.207h-5.5l-.064.227a13.036,13.036,0,0,1,3.65,1.533L17.908,65.59h3.636l5.552-13.4Z" transform="translate(-11.227 -51.947)" fill="#f8fbff"/>
      <path id="Path_858" data-name="Path 858" d="M105.091,65.59h3.2l-2.794-13.4H102.7a1.6,1.6,0,0,0-1.611,1l-5.2,12.4h3.637l.728-1.991h4.436Zm-3.84-4.741,1.834-5.016,1.031,5.016Z" transform="translate(-65.53 -51.947)" fill="#f8fbff"/>
      <path id="Path_859" data-name="Path 859" d="M78.867,54.981l.5-2.879a10.072,10.072,0,0,0-3.139-.584c-1.732,0-5.844.757-5.844,4.437,0,3.463,4.826,3.506,4.826,5.324s-4.329,1.493-5.757.346l-.519,3.009a9.774,9.774,0,0,0,3.939.757c2.381,0,5.974-1.234,5.974-4.589,0-3.485-4.87-3.809-4.87-5.324S77.374,54.158,78.867,54.981Z" transform="translate(-48.243 -51.518)" fill="#f8fbff"/>
    </g>
    <path id="Path_860" data-name="Path 860" d="M19.62,59.421l-1.175-6.027a1.494,1.494,0,0,0-1.655-1.207h-5.5l-.064.227a13.529,13.529,0,0,1,5.179,2.6A10.454,10.454,0,0,1,19.62,59.421Z" transform="translate(-11.227 -51.947)" fill="#fe9914"/>
  </g>
</svg>
